/* XPM */
static char *_14508719e6a4992840a5db63c61801ckvWv2cm1oGxEjQAc[] = {
/* columns rows colors chars-per-pixel */
"48 64 241 2 ",
"   c None",
".  c #0A0B0A",
"X  c #060706",
"o  c #130E09",
"O  c #0E100C",
"+  c #17130D",
"@  c #131411",
"#  c #1C1A13",
"$  c #1B1C19",
"%  c #231C13",
"&  c #241D18",
"*  c #24170C",
"=  c #1F211E",
"-  c #24221B",
";  c #2A241B",
":  c #2E291D",
">  c #282216",
",  c #322B1D",
"<  c #32241A",
"1  c #39321F",
"2  c #35321E",
"3  c #252522",
"4  c #2B2B25",
"5  c #2D2D2A",
"6  c #272722",
"7  c #332C22",
"8  c #362D23",
"9  c #2F302B",
"0  c #343224",
"q  c #3B3324",
"w  c #3C3924",
"e  c #34342C",
"r  c #3B342A",
"t  c #3B3B2D",
"y  c #37382B",
"u  c #343532",
"i  c #373832",
"p  c #3B3B34",
"a  c #3D3E3B",
"s  c #3B3734",
"d  c #423424",
"f  c #423B24",
"g  c #423C2B",
"h  c #4C3928",
"j  c #563D2C",
"k  c #433D33",
"l  c #403F3D",
"z  c #3E403C",
"x  c #3F4035",
"c  c #3F4026",
"v  c #44432C",
"b  c #4B442B",
"n  c #4C4A2B",
"m  c #494426",
"M  c #534C2D",
"N  c #58462D",
"B  c #54532D",
"V  c #5C532D",
"C  c #5D5C2F",
"Z  c #454334",
"A  c #4C4432",
"S  c #4C4B31",
"D  c #43433C",
"F  c #4A443B",
"G  c #4B4A3C",
"H  c #47483B",
"J  c #534C3B",
"K  c #584936",
"L  c #5A5333",
"P  c #5D5B34",
"I  c #53533B",
"U  c #5B5A3A",
"Y  c #575436",
"T  c #4F502E",
"R  c #625B2D",
"E  c #684C37",
"W  c #625C35",
"Q  c #635C39",
"!  c #69563B",
"~  c #77543A",
"^  c #60442F",
"/  c #646234",
"(  c #6A6434",
")  c #6C6935",
"_  c #64623B",
"`  c #6B663C",
"'  c #6D6B3B",
"]  c #726E35",
"[  c #736D3C",
"{  c #70673C",
"}  c #75723C",
"|  c #7A763B",
" . c #7D7A3D",
".. c #7A7634",
"X. c #67632E",
"o. c #47441F",
"O. c #3F4341",
"+. c #434441",
"@. c #4B4B43",
"#. c #4B4B48",
"$. c #544D44",
"%. c #535245",
"&. c #53534C",
"*. c #5A554B",
"=. c #5C5A47",
"-. c #5C5C53",
";. c #5B5C59",
":. c #555653",
">. c #4E5147",
",. c #675847",
"<. c #795C44",
"1. c #625D55",
"2. c #785E51",
"3. c #5F605B",
"4. c #696647",
"5. c #736D42",
"6. c #786C40",
"7. c #7A7544",
"8. c #656255",
"9. c #64635B",
"0. c #6B655B",
"q. c #6C675A",
"w. c #776757",
"e. c #7B735E",
"r. c #6D6B64",
"t. c #636360",
"y. c #746D63",
"u. c #78756A",
"i. c #7C7A74",
"p. c #817D3C",
"a. c #827F36",
"s. c #825B3D",
"d. c #835E44",
"f. c #8A6647",
"g. c #946C4A",
"h. c #95674A",
"j. c #837D43",
"k. c #827E49",
"l. c #886A52",
"z. c #966E57",
"x. c #9A7657",
"c. c #98724D",
"v. c #A6744E",
"b. c #A87957",
"n. c #B27B59",
"m. c #A36E56",
"M. c #877C68",
"N. c #8F7B6A",
"B. c #A77E62",
"V. c #85823E",
"C. c #89853D",
"Z. c #8E8B3C",
"A. c #848136",
"S. c #928E3C",
"D. c #95923E",
"F. c #9B963F",
"G. c #858143",
"H. c #8B8644",
"J. c #8B8648",
"K. c #928D44",
"L. c #928D4C",
"P. c #959145",
"I. c #9D9942",
"U. c #9B9648",
"Y. c #8B8753",
"T. c #9A9655",
"R. c #918D50",
"E. c #A29D43",
"W. c #A39D4B",
"Q. c #B3835C",
"!. c #B98459",
"~. c #A98958",
"^. c #A5A144",
"/. c #AAA545",
"(. c #ADA946",
"). c #AEAA4B",
"_. c #A9A34A",
"`. c #B2AC49",
"'. c #B1AB47",
"]. c #B6B14A",
"[. c #BAB44C",
"{. c #BEB94D",
"}. c #A8A357",
"|. c #B4AE53",
" X c #BCB452",
".X c #BCB652",
"XX c #99846B",
"oX c #8A8378",
"OX c #9B8378",
"+X c #99936D",
"@X c #A88369",
"#X c #B98966",
"$X c #AB8F73",
"%X c #ADA761",
"&X c #C58A5C",
"*X c #CC915F",
"=X c #C3BC4E",
"-X c #C6BB4C",
";X c #C4BD52",
":X c #C7BE56",
">X c #C58D64",
",X c #C38C6B",
"<X c #CB9467",
"1X c #D1956A",
"2X c #D59B6B",
"3X c #DB9E6D",
"4X c #D39865",
"5X c #C99776",
"6X c #D39B72",
"7X c #DDA171",
"8X c #E09F6F",
"9X c #C6C152",
"0X c #CBC452",
"qX c #CFC954",
"wX c #CCC75A",
"eX c #D3CC55",
"rX c #D4CD59",
"tX c #D6CC56",
"yX c #D7D057",
"uX c #D9D257",
"iX c #DDD659",
"pX c #DCD459",
"aX c #DBD55A",
"sX c #CDC44F",
"dX c #E3DB5C",
"fX c #E4DA5C",
"gX c #EAE15E",
"hX c #8A8780",
"jX c #97948B",
"kX c #9A9A92",
"lX c #B19C8A",
"zX c #A9A59C",
"xX c #B6AF9E",
"cX c #B5B3A9",
"vX c #B1AFA5",
"bX c #CA9E84",
"nX c #CAA28B",
"mX c #D5A387",
"MX c #CCA691",
"NX c #C2BCB5",
"BX c #C9C3B5",
/* pixels */
"                            :X          qX0XgXgXiX    -X             X                          ",
"                            wX`.        0XyXdXdXdX    tX            yX                          ",
"                            :XeX        eXfXdXdXdXeX  pX X         XdX                          ",
"                            qXiX        eXiXuXiXiXsX  fX:X        rXdX                          ",
"                            eXdX].  [.  eXeXeXrXuXsX  iX0X        iXgX'.                        ",
"                            yXdXeX  9XI.0X;X;X0XeX0X`.eXeX      0XdXgX{.                        ",
"                  `.        yXdXiX`.0X(.=X[.].{.9X9X:XeXeX      iXgXgX=X                        ",
"                   XeX    `.eXfXiX;X9X`.].(.(.`.{.{.0XqXrX-X|..XdXdXdX;X                        ",
"                    dX=X.X;XqXiXyX0X9X[.(.E.I.E.(.].;X0XeX0XrXpXiXfXdX=X                        ",
"                    dXyX0XrXeXeXqX9X[.(.E.D.S.D.E.(.[.=X0XqXeXeXeXiXfX;X                        ",
"                    fXiXuXuXqX0X=X[.(.E.S.C.A.p.V.K.E.].{.=X9X9XqXeXiX9X                        ",
"                    aXuXeXeX9X{.]./.E.S.A...) / ) | G.P./.`.].[.=X0XyXqX                        ",
"                    eXeX9X;X[.`.^.I.S.A.} ) W L W ` [ | D.E.^.(.].=XeXeXS.E.        `.          ",
"          =X        9X9X[.]./.I.D.C.] ( W W M M b L Q W ] Z.D.I./.].9XeX{.;X      [./.          ",
"            -X      [.{.(.^.F.Z. .W P M f b M f , w M V W ..A.Z.I.(.=XeX0X9X    `.eX            ",
"            =X  S.  `.`.E.K.j.[ ` Q f f : g g : , 2 1 b m R    .S.^.].9XeX{.  ^.iX0X            ",
"            (.(.F.F.I.^.K.7./ Q M f w 0 % ; , 7 7 : , g f f V   A.F.`.=XqX[. XrXdX;X            ",
"    =X        [.S.`.Z.K.7.` W L b , : > ; , , ; > > q ; , 2 b V ..Z./.[.9XeX0XfXdX:X  `.        ",
"    0XyX      {.W.W.K.| [ L L M f ; > q K ,.! K d : q 7 7 g g M ( A.F.'.=XeXuXfXdX  iX          ",
"    |.dXeX    [._.J.j.( B m J A q , N E g.v.h.~ h 7 % 7 ; ; 0 w V ..S.^.[.qXeXiXrXwXfX          ",
"      dXfX0X  I.W.J.j.5.L b A g q d ~ f.b.!.v.^ q h & r : : 0 q f V A.I.`.=XeXyX0XfXyX          ",
"      iXiXeX{.L.W.J.7.` L J Z g 7 h s.c.!.&X!.^ N E < 7 r 7 7 q 2 m / S./.[.9XeXyXdX;X          ",
"      eXuXeX=XW.U.H.5.Q M A g r 8 E h.b.!.<X>X~ h N d > > 7 r d 1 b M a.I.(.=XeXiXfX            ",
"      9XeXqX{.`.P.j.` M b g r d j f.v.!.>X1X<Xv.j d N ^ < > , q 0 f n ] A.^.[.0XyXeX          (.",
"    eX`.eX;X]./.P.k.Q M 1 , 7 8 d.n.n.!.>X1X<X&Xb.~ d.g.j % > > , 0 f L ) S.'.=XeX;X      W.[.  ",
"      eXqX{.`.E.H.7.P b , % > j x.#X5X<X1X1X1X1X<X#X@Xl.<.< > > 7 q f m R p./.{.qX;XE.   X[.uX  ",
"      yXqX[./.F.j.5.M f ; ; r ,.N.$X$X5X5X6X5X5X@Xw.,.l.x.j % > ; , 1 m V ..E.[.qXeX;X|.0XeX;X  ",
"=X/.  =X9X].^.p.[ W f , , % K y.w.J F ,.B.#X,XB.l.g.b.n.~.E & % > , , b V ..E.].9XyX`.yXeXiX    ",
"yX9X X).9X].E.j.` L w q ; o K XX@Xx.g.f.g.#X#Xb.f.E ,.w.,.,.F > : % , h V } I.`.9XeXeXiXfXeX    ",
"dXqX9X;X{.`.I.V.` L A q 7 # K w.w.w.J K E z.g.<.l.2.,.XXx.w.<.> > % , d M ] F.`.9XeXiXfXfX{.    ",
"iXiX9X9X=X`.I.G.5.Y A k > e D N.OXOXw.w.$.d.h.d.b.h.m.n.!.b.b.> % > , 1 m ( F.`.9XeXiXfXiX      ",
":XdXyX.X=X`.E.C.{ K b 8 > & s OX$X@Xx.m.B.h.>Xf.1X!.!.&X4X#XQ.% # > , 1 M ) Z.'.=XeXiXfXqX      ",
"  rXaXeX[.].E.C.6.L b g , % 6 OXlXQ.#X<X@X,X8Xn.@X1X2X1X<X<XQ.% # % ; 1 M ) C.`.=XeXiXfX        ",
"  9XqXeX;X].E.Z.7.,.A r 7 ; o OXnX#X,Xn.z.mX3X3Xb.x.n.#X6X3Xx.o % > , f M ) Z.`.=XeXiX0X        ",
"  ).rXqX9X].^.S.} ,.A q 7 7 & OXnX@Xx.z.5XmX1X7X<X>X6X7X7X2Xf.o # % , f L } I.`.9XeXfXE.        ",
"    wXqX9X].^.S...! K g 7 7 ; w.MXbX#X#XQ.B.n.n.>X2X2X7X3X2XE # > : , b L ) H.`.9XyXuX    :X    ",
"  tXwXeX9X].^.D...` U A r r p r MXmX,X@Xl.d.f.d.d.c.!.2X3X<X+ ; # % 0 S B ( J.].9XuXeX;XeX;X    ",
"    tXeX9X].^.S.k.w.,.J F 0 l 9 XXmXx.E z.m.b.n.m.d.g.4X3Xf.o - @ ; Z S n ( H.].0XuXiXdXfX      ",
"      9X9X].^.L.7.4.,.J %.k s u F bX#Xb.B.b.h.n.&X*X!.4X<Xd - - + t J m B } V.W.;XpXfXdX0X      ",
"eX  '.].=X].W.Y._ 4.I A @.H 5 a u w.bX5X,X!.n.*X4X4X4X4Xc.* 4 @ 7 G v m U } V.W. XqXiXeX/.-X    ",
"yXpX{.{.{.`.T.G.B 4.J g H @.4 +.6 z w.mX5X#X!.>X2X2X>X~.h - & ; Z Z 0 n _ ) C._. X0XaX0X X      ",
"`.eXeX;X[.}.R.7.M 4.G t D %.4 +.6 +.6 ,.B.x.z.x.b.Q.~.N ; # 6 t F 0 w Y P ) V.I.].0XrX.XY.      ",
"  [.9X{.|.T.Y.5.n I I y Z &.0 @.u 9 i 6 7 ,.K ! x.x.j 4 $ 4 e G y 0 Z B B ) V.P.(.;X:XU.8.u.    ",
"    `.].}.G.Y._ n b G y Z *.k @.+.3 a 0 $ K x.x.<.k 5 $ 5 e D e 9 t Z m B (  .K._.[.W.5.8.u.    ",
"    `.}.T.| 7.W m v H y D -.G D @.e i a 0 . < j k 6 6 i i p e 9 y t t m B ( | C.I.K.5.I 1.e.    ",
"    i.}.U.| 7.P m t H p H -.@.i a H 4 a p # e i - 5 i i p e 0 e t y t m B / ] C.P.G.i D *.q.e.  ",
"  Y.i.M.J. .} _ m w H Z H 1.H 0 e >.p 5 5 p D 0 s i u e e e p e 4 t g m B P ] H.K._ j.| R.7.w.  ",
"i.M. X%X5. .} _ m w D D @.-.D 0 p D H 4 5 >.e p i i e e e p i 4 0 t v n B W | P.U.[.;X}.,.w.q.M.",
"t.u.u.Y._.K.| ` n w H H %.-.p e p D #.p a i e i i i i p p e 4 6 y t v n B ( G.U.`.{.G.H @.e.8.y.",
"  #.;.:.,.H.V.} B c H G *.&.p p D D @.&.p 4 6 6 5 u i i e 4 6 0 t v v n C | P.^._.U z i H e.8.q.",
"  t.+.a a a ` j./ m Z %.-.@.p p D H a @.p e 0 5 e e i e 4 4 4 t t v n B ' H.W. .p z u 9 @.q.0.1.",
"  u.&.H t 0 v ] } B n =.8.G Z x H D z D D t e 0 e i e 4 5 e e t Z v B ( V.K.U 4 i u 3 u %.0.0.-.",
"  1.@.p n ] Z.Z.V.( B 4.=.G H Z H D D a @.t e e e 0 4 0 e t p v v T / | H.5.W } j.) n H -.8.0.-.",
"r.1.9.k 9 0 m ..Z.p.( 5.4.I I H G H D D @.Z t y 0 0 y t p x Z A S P } H.W.`.[.^.] , 5 +.9.-.9.8.",
"9.0.*.@.G k 0 0 R .. .k.5.U U I I G G G %.Z v y 0 y t x Z Z S B U ' V.U._.K./ 4 . = i %.9.-.-.0.",
"oXy.0.*.k r 4 4 7 6 y 5.7.} 5.+XU U I U =.S S v t v v S S B P W ' 7. .' D 5 5 O @ e +.-.-.-.-.0.",
"M.y.q.G y r F Z 0 1 m 5.G.G.T.+X' ' ' ' 5.P P B M B B Y P W ` }  .' I >.p 5 @ X 4 a @.-.-.&.9.r.",
"oXu.1.F Z $.F 4 6 - o.| L.%X}.%XL.L.G.j.G.| ' / / ( ( ' ' }  .H.P.W.)._.H.X.2 6 i z @.&.&.-.9.;.",
"oX1.*.$.J F k 6 p X X 6 jXoXoXxXkXxXU.K.J._ %.t P ( | V.j. . .7.' ' U %.4 X $ u a D #.%.-.9.3.;.",
"r.1.*.F t t e 4 4 X . # &.9.zXjXvX+X+XjXD r.kXi.r.u.U } j.Q z a D D D +.3 $ 9 a z +.@.&.3.9.;.9.",
"y.0.1.*.$.F p 6 . X . @ p >.zXNXi.vXz r.p D zXhXvXi.jXoXH I H D +.D +.+.5 u u a +.@.#.;.t.:.;.:.",
"u.0.1.*.J k y 6 . . . O k @.r.hX-.vXBXu.i e vX;.vXD cXcX-.cXD D D +.+.+.u u @ 9 9 i @.;.:.:.:.;.",
"8.%.D y 0 0 6 # X @ X O 0.zXhX&.Z G *.p p H jXi zXr.vXcX+.cXD H D +.+.+.z u $ 5 a @.#.:.:.:.&.;.",
"*.@.J G Z y - X @ = X @ oXjX1.u.H Z Z p -.BX9.i D i.%.vXkXvXD D D +.D z O.5 $ u +.+.@.&.:.:.&.;."
};
