/* XPM */
static char *_0754970192a4a66f6a9a694cb0cc0b9qb8Z9z8wv5Nua6Z5[] = {
/* columns rows colors chars-per-pixel */
"64 64 238 2 ",
"   c None",
".  c #1D380D",
"X  c #392513",
"o  c #243E10",
"O  c #2E1D10",
"+  c #470800",
"@  c #5B0B02",
"#  c #560901",
"$  c #5A1407",
"%  c #6C0D03",
"&  c #660E04",
"*  c #730B01",
"=  c #7B0D03",
"-  c #641304",
";  c #6C1206",
":  c #6B1509",
">  c #6C1B0C",
",  c #671803",
"<  c #741206",
"1  c #7B1405",
"2  c #74140A",
"3  c #7A150A",
"4  c #7A1D0A",
"5  c #7C1C10",
"6  c #741A12",
"7  c #5F2300",
"8  c #472E1A",
"9  c #4B311D",
"0  c #50351D",
"q  c #6E2207",
"w  c #7D210C",
"e  c #772804",
"r  c #7A2417",
"t  c #7C3300",
"y  c #583922",
"u  c #1D4812",
"i  c #1C4C11",
"p  c #284C14",
"a  c #285917",
"s  c #35571A",
"d  c #37671C",
"f  c #2C621B",
"g  c #3A6A20",
"h  c #377923",
"j  c #2A7921",
"k  c #68452A",
"l  c #7B5133",
"z  c #456F23",
"x  c #457125",
"c  c #820E04",
"v  c #831306",
"b  c #891206",
"n  c #851B03",
"m  c #8A1C04",
"M  c #83140A",
"N  c #8B150B",
"B  c #851A0A",
"V  c #8B1B0C",
"C  c #9C170C",
"Z  c #931B0B",
"A  c #9B1B0D",
"S  c #92190A",
"D  c #851C12",
"F  c #8A1C11",
"G  c #991E12",
"H  c #A31C0C",
"J  c #AD1A0D",
"K  c #A31D11",
"L  c #AB1D10",
"P  c #B31F11",
"I  c #832101",
"U  c #8A2204",
"Y  c #8C2C04",
"T  c #84220E",
"R  c #892709",
"E  c #9A2D04",
"W  c #9B230B",
"Q  c #942507",
"!  c #863001",
"~  c #953604",
"^  c #8C2413",
"/  c #892716",
"(  c #942313",
")  c #952D15",
"_  c #9D2914",
"`  c #9C2419",
"'  c #96291A",
"]  c #9C3919",
"[  c #893817",
"{  c #A3230B",
"}  c #AB230E",
"|  c #A4290D",
" . c #AC2C0C",
".. c #A92906",
"X. c #B52B0D",
"o. c #B9290F",
"O. c #AC340C",
"+. c #A73606",
"@. c #B4340B",
"#. c #BB340D",
"$. c #B43A0B",
"%. c #B63909",
"&. c #A22412",
"*. c #AA2212",
"=. c #A52B14",
"-. c #AC2B14",
";. c #A42A1C",
":. c #AB2E1B",
">. c #B32412",
",. c #BB2314",
"<. c #BC2B12",
"1. c #B62B17",
"2. c #AC321A",
"3. c #A83819",
"4. c #B4321B",
"5. c #B93519",
"6. c #962C23",
"7. c #9A3524",
"8. c #A12D24",
"9. c #AA3725",
"0. c #B53B24",
"q. c #BD3D24",
"w. c #B73723",
"e. c #C03A0C",
"r. c #C32516",
"t. c #CA2717",
"y. c #C42A14",
"u. c #C22A19",
"i. c #CB2B1A",
"p. c #CA2A17",
"a. c #C53312",
"s. c #CB3616",
"d. c #D33A1B",
"f. c #D33616",
"g. c #CC2D17",
"h. c #C52E23",
"j. c #C93825",
"k. c #D43623",
"l. c #D23629",
"z. c #D43C2C",
"x. c #D83B26",
"c. c #CB3E30",
"v. c #D33E32",
"b. c #D83F31",
"n. c #D02E20",
"m. c #934119",
"M. c #87491B",
"N. c #B74707",
"B. c #AA431C",
"V. c #BB4718",
"C. c #B8511D",
"Z. c #AD4B0D",
"A. c #945322",
"S. c #B64B22",
"D. c #BA4521",
"F. c #BA582A",
"G. c #B74D2D",
"H. c #B56A2C",
"J. c #CB470B",
"K. c #D44A0D",
"L. c #D9550D",
"P. c #C5411A",
"I. c #DA4314",
"U. c #D74816",
"Y. c #DC5516",
"T. c #CD540B",
"R. c #E2560E",
"E. c #E15919",
"W. c #E14716",
"Q. c #E86D18",
"!. c #C74629",
"~. c #D5432C",
"^. c #D94828",
"/. c #C8552A",
"(. c #D95829",
"). c #CD4A33",
"_. c #CB4734",
"`. c #D54333",
"'. c #DB4434",
"]. c #D44B33",
"[. c #DA4A35",
"{. c #DB4D3A",
"}. c #D64839",
"|. c #CD5636",
" X c #D3543C",
".X c #DB543D",
"XX c #D85836",
"oX c #E15826",
"OX c #E15A37",
"+X c #E34B32",
"@X c #DE6B25",
"#X c #CB6636",
"$X c #DB6739",
"%X c #D5703B",
"&X c #E56734",
"*X c #E67636",
"=X c #E8722C",
"-X c #DA6C19",
";X c #D94F44",
":X c #CB5844",
">X c #DA5444",
",X c #D65B44",
"<X c #D45C4C",
"1X c #DB5D4C",
"2X c #D75645",
"3X c #D75D52",
"4X c #E25645",
"5X c #DC6445",
"6X c #DB654C",
"7X c #D76847",
"8X c #D97549",
"9X c #D56354",
"0X c #DA6354",
"qX c #DB6C5C",
"wX c #DA6C58",
"eX c #DD7457",
"rX c #E2684A",
"tX c #E2734A",
"yX c #E57846",
"uX c #E3785A",
"iX c #E46B56",
"pX c #DB6E61",
"aX c #DE7363",
"sX c #DB786A",
"dX c #E47866",
"fX c #2D8224",
"gX c #DE8B56",
"hX c #E48459",
"jX c #DF8A7D",
"kX c #E58667",
"lX c #E38474",
"zX c #E28879",
"xX c #E59779",
"cX c #EBA57C",
"vX c #E69487",
"bX c #E68F82",
"nX c #EBA484",
"mX c #EAB58C",
/* pixels */
"                                                                                                                                ",
"                                                                                                                                ",
"                                                                                                                                ",
"                                                                                                                                ",
"                                                                                                                                ",
"                                                                                                                                ",
"                                                                                                                                ",
"                                                                                                                                ",
"                                                                                                                                ",
"                                                                                                                                ",
"                                                        k                                                                       ",
"                                                      y y y                                                                     ",
"                                                        X 0 l                 g j                                               ",
"                                                          X k           g g h fXh s                                             ",
"                                                          O y l       h h x h h d s                                             ",
"                                                            y k     g fXx x x d a u                                             ",
"                                                            8 k   g fXz z z d a p .                                             ",
"                                                            8 k h fXz g d f a o .                                               ",
"                                        w 5 T T T w         X y h g f a i u o                                                   ",
"                                  5 5 ^ ^ ) ;._ =.) ^ ^   X X 9 s a i u .                                                       ",
"                              ^ ( ( :.4.w.0.q.4.5.-.=.2.2.9 8 p p p p ^ T / ) ) / T ) ) / /                                     ",
"                          4 ( &.-.4.#X].).).).!.!.5.s.k.!.q.q.0.2.;.:.4.2.S.S.2.2.=.5.2.) T q q                                 ",
"                        : V &.;.4.#XtX>X X,X6X7X2X_.[.[.[.].!.!.!.!._.!.|.|.j.q.q.q.!.5._ ) w > q                               ",
"                        3 F :.w.8X8X,X2X1X0XdXuX9X9X1X0XwXiX,X1X<X1X<X9XhXgX7X X,X:X:X!.4.=.) w >                               ",
"                      = B _ 0./.XX2X2X X,X8XhXdXpXqXzXxXbXbXlXlXlXsXaXsXxXxXqXqXdXsXuX:X).4.=.^ >                               ",
"                    2 M G ;.F.7X.X4X.X{..XtXqXpXpXsXmXbXvXvXvXvXvXzXlXzXnXnXlXdXdXdXdX<X).4.4.=.4 -                             ",
"                  2 5 ( &.:.!.$X>X>X{.{.$XyX0X0XqXxXxXjXvXxXzXzXzXlXhXdXxXnXxXaXwXrXrX,X|.h.4.=.T -                             ",
"                  2 / 9.*.P.(.$X>X&X'.{.$X7X0X0XaXcXkXsXkXkXaXqXqXtXyX0XkXkXuXiX6X.X[.$X/.4.-.&.T :                             ",
"                  3 7.9.&.V.|.>X4X+X~.OXtX6X2X1XuXkXwX0XyXtX3X0X<X7X,X2X>X1XyXyXXX~.[.|.1.#.5.=.B :                             ",
"                3 D 9.=.3.S._.}.'.^.l.5XeX<X}.].hX5X X X*X*X6X3X<XyXyX2XuXhXrX&X^.b.[.%X#XV.N.+.V > $                           ",
"                2 ^ ;.&.9.0.j.h.h.{.`.5XeX9X5X5XtXXXXX&X*XyX3X<X<X7XtX,X{..X&XoXk.k.'.%X5.:.3._ F 6 $                           ",
"                ; / ` =.9.w.j.j.4Xv.^.*X<X7X5X_.}..X].^.*X5X0X9X6XtXrX,X~.^.oXoXx.k.k.|.F.4.0._ 7.r $                           ",
"                ; M W O.V.P.h.z.>X{.U.@X%X%X Xv.[..XXXOX*XXX3X0X5XrX5X.Xb.U.oX~.k.i.t.!.G.C.3.9.' 2 :                           ",
"                6 D A } $.1.1.;X4XU.L.Y.@X$X`.b.[.XX X=XQ.[.1X1XXX(.].`.d.k.(.z.l.l.k.<.1.V.3.8.' 2 :                           ",
"                2 M { } $.L ,.h.j.Y.L.L.-X^.`.'.]..X(.E.Q.k.4X4XoX(.v.l.d.x.z.b.}.l.y.a.<.$.| ` ^ < -                           ",
"                r ^ A } $.H J z.}.K.K.L.j.c.c.). X>XXXY.f.n.'.x.^.^.b.l.U.E.^.z.b.l.y.<.>. .` ` v % @                           ",
"                6 M A H >.>.P `.`.f.K.K.J.j.j.^.].3X Xd.n.x.z.W.E.^.~.d.R.E.k.n.l.`.,.,.>.{ ` ` M &                             ",
"                2 3 A ..$.K } _.y.J.J.L.J.a.s.I.].;Xh.r.t.^.b.I.U.f.f.f.R.I.t.t.}.r.,.<.%.=.8.G * -                             ",
"                  3 N %.O.C B.7X#.#.T.J.y.,.,.t.`.`.t.p.n.f.f.I.I.t.t.p.t.n.t.t.p.,.@...+.;.` c &                               ",
"                  2 V { A _ F. .@.J.J.e.P ,.<.s.^.,.r.p.s.s.g.I.f.t.t.!.i.t.t.`.i.,.N.+.A &.b %                                 ",
"                  2 N A A ] 3.{ @.e.X.X.P ,.p.!.~.p.p.s.K.L.g.L.g.p.i.!.u.r.i.v.r.>.A A A ;.3 @                                 ",
"                  2 V Z S m.m.]  . .$.>.>.u.y.a.i.i.y.a.s.K.K.s.r.,.D.F.!.u.c.r.L C Z A Q n @                                   ",
"                    M b v [ / Q |  .L *.>.u.,.j.j.u.<.o.#.#.<.a.,.,.D.S.>.o.e.X.C S V n I -                                     ",
"                    2 b c [ R Y +.N.O.K *.*.w./.!.<.>.X.@. .$.>.,.>.D.V.X.} $...C S b 1 , #                                     ",
"                    ; v v M B v E { W A &.K w./.V. .} @.@.-.*.,.,./.F.>.} { +.Z Z U I q $                                       ",
"                      * = M.T M Q W W A *. .} N.O.O.| N.@.*.*.>.P H.<.X. .+.~ v v n t 7                                         ",
"                      @ * 1 v 1 Y Y Z A K -.0.2.| | O.+.K H H *.B.C. .H +.~ v = n 4 , #                                         ",
"                      # % M.R I ! ! U S C B.S.+.{ } +.W A 9.W ] H.+.Z b V / v m ! e $                                           ",
"                        & M.v m I < 1 V E B.Z.H W W V N Z 8.Z A.E E N M / b b U t 7                                             ",
"                          & 1 m n I U n ^ ] E Z Q ~ R V 6.A W Z E U M M v v 1 < ,                                               ",
"                            ; 1 n U U B Y 7.) v B Y M 6.F Z Q b Y 5 / c M 1 % @                                                 ",
"                              , e 4 n M ~ m.1 3 B m V N V B B I w 6 M v = % @                                                   ",
"                                  ; 2 3 v 1 2 < 3 D D M 1 * % < r 5 = * % @                                                     ",
"                                    % ; % ; ; % > 6 % % & @ @ @ @ @ # # #                                                       ",
"                                              @ $ $ # # # + + + + + +                                                           ",
"                                                                                                                                ",
"                                                                                                                                ",
"                                                                                                                                ",
"                                                                                                                                ",
"                                                                                                                                ",
"                                                                                                                                ",
"                                                                                                                                ",
"                                                                                                                                ",
"                                                                                                                                "
};
