/* XPM */
static char *_541170838484d909e28bc8623efc1e0tigJahkvsYpD9S4q[] = {
/* columns rows colors chars-per-pixel */
"544 32 10 1 ",
"  c None",
". c #211F30",
"X c #BA570B",
"o c #28860F",
"O c #72A11D",
"+ c #CE8B16",
"@ c #E1CA33",
"# c #A4CC42",
"$ c #F7EC8A",
"% c white",
/* pixels */
"                                                                                                                                                                                                                                                                                                                                                                                                                                                                                                                                                                ",
"                                                                                                                                                                                                                                                                                                                                                                                                                                                                                                                                                                ",
"                                                                                                                                                                                                                                                                                                                                                                                                                                                                                                                                                                ",
"                                                                                                                                                                                                                                                                                                                                                                                                                                                                                                                                                                ",
"                                                                                                                                                                                                                                                                                                                                                                                                                                                                                                                                                                ",
"                                                                                                                                                                                                            ...                             ...                             ...                                                                                                                                                                                                                                                                                 ",
"                                                                                                                                                                                                           .#O.                            .#O.                            .#O.                                                                                                                                                                                                                                                                                 ",
"                                                                                                                                                                           ...                             .Oo.                            .Oo.                            .Oo.                            ...                             ...                                                                                                                                                                                                                  ",
"           ...                             ...                             ...                             ...                             ...                            .#O.                             .Oo.                            .Oo.                            .Oo.                           .#O.                            .#O.                            ...                                                                                                                             ...                             ...                   ",
"          .#O.                            .#O.                            .#O.                            .#O.                            .#O.                            .Oo.                             .o.......                       .o.......                       .o.......                      .Oo.                            .Oo.                           .#O.                                                                                                                            .#O.                            .#O.                   ",
"          .Oo.                            .Oo.                            .Oo.                            .Oo.                            .Oo.                            .o.........                     .@$@X+@@@.                      .@$@X+@@@.                      .@$@X+@@@.                      .o.........                     .o.........                    .Oo.                            ....                            ....                            ....                            .Oo.                            .Oo.                   ",
"          .o.........                     .o.........                     .o.........                     .o.........                     .o.........                    .@$$@X+@@@@.                     .@%$XXXXX..                     .@%$XXXXX..                     .@%$XXXXX..                    .@$$@X+@@@@.                    .@$$@X+@@@@.                    .o...........                  .#OO.                           .#OO.                           .#OO.                            .o...........                   .o...........          ",
"         .@$$@X+@@@@.                    .@$$@X+@@@@.                    .@$$@X+@@@@.                    .@$$@X+@@@@.                    .@$$@X+@@@@.                    .@$%$XXXXXX..                    .@%$@X++++.                     .@%$@X++++.                     .@%$@X++++.                    .@$%$XXXXXX..                   .@$%$XXXXXX..                  .@$$$@X+@@@@@.                  .ooo...........                 .ooo...........                 .ooo...........                 .@$$$@X+@@@@@.                  .@$$$@X+@@@@@.          ",
"         .@$%$XXXXXX..                   .@$%$XXXXXX..                   .@$%$XXXXXX..                   .@$%$XXXXXX..                   .@$%$XXXXXX..                   .@$$$@X+++++.                    .@$%%@XXXX..                    .@$%%@XXXX..                    .@$%%@XXXX..                   .@$$$@X+++++.                   .@$$$@X+++++.                  .@$%%$XXXXXXX..                .@$$$$@X+@@@@@@.                .@$$$$@X+@@@@@@.                .@$$$$@X+@@@@@@.                 .@$%%$XXXXXXX..                 .@$%%$XXXXXXX..         ",
"         .@$$$@X+++++.                   .@$$$@X+++++.                   .@$$$@X+++++.                   .@$$$@X+++++.                   .@$$$@X+++++.                   .@$$%%@XXXXX..                   .@$%%%$$$$@.                    .@$%%%$$$$@.                    .@$%%%$$$$@.                   .@$$%%@XXXXX..                  .@$$%%@XXXXX..                 .@$$$$@X++++++.                .@$%%$$XXXXXXXX..               .@$%%$$XXXXXXXX..               .@$%%$$XXXXXXXX..                .@$$$$@X++++++.                 .@$$$$@X++++++.         ",
"         .@$$%%@XXXXX..                  .@$$%%@XXXXX..                  .@$$%%@XXXXX..                  .@$$%%@XXXXX..                  .@$$%%@XXXXX..                  .@$$%%%$$$$$@.                   .@$%%%%$$$@.                    .@$%%%%$$$@.                    .@$%%%%$$$@.                   .@$$%%%$$$$$@.                  .@$$%%%$$$$$@.                 .@$$%%%@XXXXXX..               .@$$$$$@X+++++++.               .@$$$$$@X+++++++.               .@$$$$$@X+++++++.                .@$$%%%@XXXXXX..                .@$$%%%@XXXXXX..        ",
"         .@@$$%%$$$$$@.                  .@@$$%%$$$$$@.                  .@@$$%%$$$$$@.                  .@@$$%%$$$$$@.                  .@@$$%%$$$$$@.                  .@$$$%%%%$$$@.                   .@$$%%%$$$@.                    .@$$%%%$$$@.                    .@$$%%%$$$@.                   .@$$$%%%%$$$@.                  .@$$$%%%%$$$@.                 .@@$$%%%$$$$$$@.               .@@$%%%%@XXXXXXX..              .@@$%%%%@XXXXXXX..              .@@$%%%%@XXXXXXX..               .@@$$%%%$$$$$$@.                .@@$$%%%$$$$$$@.        ",
"          .@$$$%%%$$$@.                   .@$$$%%%$$$@.                   .@$$$%%%$$$@.                   .@$$$%%%$$$@.                   .@$$$%%%$$$@.                  .@@$$$%%%$$$@.                   .@$$$%%$$$@.                    .@$$$%%$$$@.                    .@$$$%%$$$@.                   .@@$$$%%%$$$@.                  .@@$$$%%%$$$@.                  .@$$$%%%%$$$$@.                .@$$$%%%%%%$$$$@.               .@$$$%%%%%%$$$$@.               .@$$$%%%%%%$$$$@.                .@$$$%%%%$$$$@.                 .@$$$%%%%$$$$@.        ",
"          .@@$$$$$$$@@.                   .@@$$$$$$$@@.                   .@@$$$$$$$@@.                   .@@$$$$$$$@@.                   .@@$$$$$$$@@.                   .@$$$$$$$$$@.                   .@@$$$$$$$@.                    .@@$$$$$$$@.                    .@@$$$$$$$@.                    .@$$$$$$$$$@.                   .@$$$$$$$$$@.                  .@@$$$$$$$$$@@.                .@@@$$$$$$$$$@@@.               .@@@$$$$$$$$$@@@.               .@@@$$$$$$$$$@@@.                .@@$$$$$$$$$@@.                 .@@$$$$$$$$$@@.        ",
"           .@@@$$$@@@.                     .@@@$$$@@@.                     .@@@$$$@@@.                     .@@@$$$@@@.                     .@@@$$$@@@.                    .@@$$$$$$$@@.                    .@$$$$$$$@.                     .@$$$$$$$@.                     .@$$$$$$$@.                    .@@$$$$$$$@@.                   .@@$$$$$$$@@.                   .@@@$$$$$@@@.                  ..@@@@@@@@@@@..                 ..@@@@@@@@@@@..                 ..@@@@@@@@@@@..                  .@@@$$$$$@@@.                   .@@@$$$$$@@@.         ",
"            ..@@@@@..                       ..@@@@@..                       ..@@@@@..                       ..@@@@@..                       ..@@@@@..                      .@@@$$$@@@.                     .@@$$$$$@@.                     .@@$$$$$@@.                     .@@$$$$$@@.                     .@@@$$$@@@.                     .@@@$$$@@@.                     ..@@@@@@@..                     ...........                     ...........                     ...........                     ..@@@@@@@..                     ..@@@@@@@..          ",
"              .....                           .....                           .....                           .....                           .....                         ..@@@@@..                       .@@$$$@@.                       .@@$$$@@.                       .@@$$$@@.                       ..@@@@@..                       ..@@@@@..                        .......                                                                                                                         .......                         .......            ",
"                                                                                                                                                                              .....                          ..@@@..                         ..@@@..                         ..@@@..                          .....                           .....                                                                                                                                                                                                             ",
"                                                                                                                                                                                                               ...                             ...                             ...                                                                                                                                                                                                                                                                              ",
"                                                                                                                                                                                                                                                                                                                                                                                                                                                                                                                                                                ",
"                                                                                                                                                                                                                                                                                                                                                                                                                                                                                                                                                                ",
"                                                                                                                                                                                                                                                                                                                                                                                                                                                                                                                                                                ",
"                                                                                                                                                                                                                                                                                                                                                                                                                                                                                                                                                                ",
"                                                                                                                                                                                                                                                                                                                                                                                                                                                                                                                                                                ",
"                                                                                                                                                                                                                                                                                                                                                                                                                                                                                                                                                                ",
"                                                                                                                                                                                                                                                                                                                                                                                                                                                                                                                                                                ",
"                                                                                                                                                                                                                                                                                                                                                                                                                                                                                                                                                                "
};
