/* XPM */
static char *_963f8b9cd8749a5993846b544b43f46P8JhJdVzLzbmMjMq[] = {
/* columns rows colors chars-per-pixel */
"64 64 151 2 ",
"   c None",
".  c #131315",
"X  c #161718",
"o  c #1D1C1D",
"O  c #361600",
"+  c #381700",
"@  c #3D1A01",
"#  c #251F19",
"$  c #292515",
"%  c #29231A",
"&  c #2E2A19",
"*  c #332F19",
"=  c #3E3417",
"-  c #35321D",
";  c #3E361C",
":  c #1D1E20",
">  c #222223",
",  c #2E2820",
"<  c #302920",
"1  c #3A3621",
"2  c #3C3922",
"3  c #3D382F",
"4  c #3B352C",
"5  c #252D33",
"6  c #441E03",
"7  c #452202",
"8  c #4A2303",
"9  c #4E2906",
"0  c #512705",
"q  c #552E07",
"w  c #563007",
"e  c #5F3700",
"r  c #563008",
"t  c #5E350A",
"y  c #443B1C",
"u  c #613700",
"i  c #643A00",
"p  c #60370A",
"a  c #3E4230",
"s  c #46411D",
"d  c #49441D",
"f  c #6D4202",
"g  c #714604",
"h  c #744A05",
"j  c #7B4A05",
"k  c #70470A",
"l  c #774908",
"z  c #7A4B09",
"x  c #734D16",
"c  c #744F18",
"v  c #474321",
"b  c #494521",
"n  c #4C4821",
"m  c #404532",
"M  c #844F05",
"N  c #865005",
"B  c #8E5C07",
"V  c #875208",
"C  c #885308",
"Z  c #865A0D",
"A  c #8F5D09",
"S  c #915E07",
"D  c #925C09",
"F  c #855B1F",
"G  c #8F5F1A",
"H  c #905F1A",
"J  c #916007",
"K  c #92610A",
"L  c #9B690C",
"P  c #91611C",
"I  c #A26F0E",
"U  c #A3700E",
"Y  c #A57311",
"T  c #AA7710",
"R  c #B68315",
"E  c #BEAC15",
"W  c #BEA01F",
"Q  c #B28520",
"!  c #B58923",
"~  c #BB8D23",
"^  c #B89725",
"/  c #B59A27",
"(  c #BB9C24",
")  c #C19E1F",
"_  c #C7A413",
"`  c #C8A413",
"'  c #C9A913",
"]  c #C2A01F",
"[  c #DAA11E",
"{  c #D2B515",
"}  c #DBB415",
"|  c #D2BC15",
" . c #DFBA12",
".. c #D6B51F",
"X. c #E3AC1F",
"o. c #E0BA13",
"O. c #C49725",
"+. c #C39E24",
"@. c #C99B27",
"#. c #C4A121",
"$. c #CFAC25",
"%. c #CEAB2A",
"&. c #DFA721",
"*. c #D1AE24",
"=. c #D1AD2A",
"-. c #C5B42E",
";. c #C8B72F",
":. c #C8B82F",
">. c #D3B123",
",. c #D5B22B",
"<. c #D2BB2C",
"1. c #DEBB2D",
"2. c #E4AB21",
"3. c #ECB425",
"4. c #E1BE2F",
"5. c #F1BA23",
"6. c #E2BF30",
"7. c #D5C015",
"8. c #DFC413",
"9. c #D5C118",
"0. c #EBC616",
"q. c #E7CF14",
"w. c #EBCA13",
"e. c #EDCE19",
"r. c #EBD314",
"t. c #ECD51A",
"y. c #DAC62B",
"u. c #DDCB2C",
"i. c #DFD12B",
"p. c #DECB31",
"a. c #E3C12F",
"s. c #E5CB2E",
"d. c #E8CF2F",
"f. c #EAD12E",
"g. c #F3DD2D",
"h. c #E0CD32",
"j. c #F2DD31",
"k. c #5F96B8",
"l. c #79ADB6",
"z. c #91C1B6",
"x. c #CECAB3",
"c. c #D7CDB0",
"v. c #D7CEB0",
"b. c #D1CDB6",
"n. c #D9D0B3",
"m. c #DBD0B1",
"M. c #DCD2B4",
"N. c #E8E4CB",
"B. c #E9E5CD",
"V. c #E9E6CD",
"C. c #EAE6CD",
/* pixels */
"                                                                                                                                ",
"                                                                                                                                ",
"                                                                                                                                ",
"                                                                                                                                ",
"                                                                                                                                ",
"                                                                                                                                ",
"                                                                                                                                ",
"                                                                                                                                ",
"                                                                                                                                ",
"                                                                                                                                ",
"                                                                                                                                ",
"                                                                                                                                ",
"                                N.N.N.N.                                        N.N.N.N.                                        ",
"                                N.N.N.N.                                        N.N.N.N.                                        ",
"                            N.N.        N.N.N.N.                        N.N.N.N.        N.N.                                    ",
"                            N.N.        N.N.N.N.                        N.N.N.N.        N.N.                                    ",
"                            N.N.    N.N.N.N.    N.N.N.N.        N.N.N.N.    N.N.N.N.    N.N.                                    ",
"                            N.N.    N.N.N.N.    N.N.N.N.        N.N.N.N.    N.N.N.N.    N.N.                                    ",
"                                C.C.C.C.    C.C.C.C.    C.C.C.C.    C.C.C.C.    C.C.C.C.                                        ",
"                                m.M.b.x.    m.M.M.m.    c.m.m.c.    c.m.m.c.    c.m.m.c.                                        ",
"                    o o     N V H F 3 4 z C P P P G V M c c c x i i x c c x i i x c c x i i                                     ",
"                    o o     l z A Z ; ; k z z z A K K A h h h h h h i i g g i i g g i u i i                                     ",
"                        o o # ; <.f.p.-.; # # ; <.f.d.s.,.=.=.=.=.+.t t @.@.t t @.@.p 8 0 0 i i                                 ",
"                        % % - b ;.h.j.u.n - - d ;.h.j.j.a.4.6.6.a.%.t t =.=.t t =.=.t 8 8 0 i i                                 ",
"                        z Z <.:.v d 7.t.u.y.9.E s d 9.t.>.>.4.4.>.#.t t #.#.q q #.#.w 6 8 0 i i                                 ",
"                        M K f.u.d d 7.t.g.g.r.7.d d 7.r.>.>.1.1.>.) t t #.#.q q ] ] w 6 8 0 i i                                 ",
"                        M J 8.r.7.7.g.g.t.t.r.r.u.u.r.q.>.>.>.>.>.) q r %.%.r q ] #.t 8 6 8 u i                                 ",
"                        M S 8.r.r.r.g.g.t.r.t.t.g.g.r.q...>.>.>.>.) q r %.%.r q ] #.t 8 6 8 i i                                 ",
"                        M S  .w.w.w.r.t.r.t.g.g.e.w.w.w. .} } } >.) q q #.#.q q ] ] w 6 6 8 i i                                 ",
"                        M B ' { y.u.r.r.r.t.g.j.u.y.{ { _ ` } } >.) q q ] ] q q ] ] q 6 6 8 i i                                 ",
"                        N z = a l.z.i.r.r.r.r.i.z.l.a * & y ( $.>.) q q ] ] q q ] ] w 6 6 8 i i                                 ",
"                        N l % 5 k.l.u.r.r.r.r.u.l.k.5 o X & / %.>.) q q ] ] q q ] ] w 6 6 8 i i                                 ",
"                        N l < > 5 a | r.r.r.r.7.m 5 > > . $ ( >.>.) q q ] ] q q ] ] w 6 6 6 u i                                 ",
"                        N l < > o - | r.r.r.r.| - o > > . $ ( >.>.) q q ] ] q q ] ] w 6 @ 6 u i                                 ",
"                        N l % o > 2 | r.r.r.r.| 2 > > o X & ( >.>.) q q ] ] q q ] ] w 6 @ 6 u u @ O                             ",
"                        N l % o > 2 | r.r.r.r.| 2 > > o X & ( >.>.) q q +.+.q q +.+.q 6 @ 6 u u @ O                             ",
"                        N l , > o - { w.r.r.w.{ - : > > . $ ( >.>.) q q ( ( q q ( ( q @ @ 6 u i                                 ",
"                        N z y 2 - d { w.r.r.w.{ d - 2 1 $ = ( >.>.+.q q ( ( q q ( ( q @ @ 6 u i                                 ",
"                        M B ' { | 7.q.r.r.r.r.q.7.| { { W ( $.>.%.( 9 9 ! ! 9 9 ! ! 9 @ + @ u i                                 ",
"                        M S o.w.r.r.r.r.r.r.r.r.r.r.w.0.>.*.>.*.%.^ 9 9 ! ! 9 9 Q Q 9 @ O @ e i                                 ",
"                        M D X.5.0.w.w.w.r.r.w.w.w.0.5.3.@.@.*.*.@.! 9 9 ! ! 9 8 Y Y 7 O O @ e i                                 ",
"                        M D 2.5.0.0.w.w.r.r.w.w.0.0.5.3.@.O.$.$.O.Q 9 9 Q Q 9 8 U I 7 O O @ e i                                 ",
"                        M D 2.5.5.5.w.w.w.w.w.w.5.5.5.3.@.O.O.O.R Y 7 7 Y Y 7 7 U U 7 O O @ e i                                 ",
"                        M D [ 2.2.X. . . . . . .X.2.2.&.~ ! ~ ! T L 8 8 L L 8 8 L L 8 @ @ 6 e i                                 ",
"                            D D D D S S S S S S D D D B h g g g f f i i f f i i f f i e e e                                     ",
"                            M M M M M M j j M M j j M j i e i i u u i i e e i i u u i i i i                                     ",
"                                        6 6     8 8     @ @     8 8     @ @     8 8                                             ",
"                                        O O     6 6     O O     6 6     O O     6 6                                             ",
"                                        O O     6 6     O O     6 6     O O     6 6                                             ",
"                                        O O     6 6     O O     6 6     O O     6 6                                             ",
"                                                                                                                                ",
"                                                                                                                                ",
"                                                                                                                                ",
"                                                                                                                                ",
"                                                                                                                                ",
"                                                                                                                                ",
"                                                                                                                                ",
"                                                                                                                                ",
"                                                                                                                                ",
"                                                                                                                                ",
"                                                                                                                                ",
"                                                                                                                                ",
"                                                                                                                                ",
"                                                                                                                                "
};
