/* XPM */
static char *_3eaff1d4e1248a9b6e2b39c01b746cc[] = {
/* columns rows colors chars-per-pixel */
"32 32 31 1 ",
"  c None",
". c #380B03",
"X c #37201C",
"o c #401E17",
"O c #441C14",
"+ c #4A251E",
"@ c #4D2C26",
"# c #572820",
"$ c #9B1900",
"% c #A21A00",
"& c #BB1E00",
"* c #BF1F00",
"= c #BF7900",
"- c #D68700",
"; c #E89300",
": c #F69C04",
"> c #FA9D00",
", c #F69E09",
"< c #FFA000",
"1 c #FFA409",
"2 c #FFA812",
"3 c #FFA916",
"4 c #FFAA1B",
"5 c #FFAB1B",
"6 c #FFAC1F",
"7 c #FFAF28",
"8 c #FAB030",
"9 c #F1CB00",
"0 c #EDCE2A",
"q c #FAD928",
"w c #FFBB48",
/* pixels */
"                                ",
"                                ",
"                                ",
"                                ",
"                                ",
"                                ",
"         ==---=====-===         ",
"       ==3;;;33;;;333;;==       ",
"      =;;3,33,3>>,,,w3;33=      ",
"     -3333,>,>w11>>,,333;;=     ",
"    =;;,w,>>11555511>>,,33;-    ",
"   =3;3,>111553336w155>,,3;3=   ",
"   =;3,>>55w6333633331w>>3,;-   ",
"  -3;,,>15533377w77333511w3;3=  ",
"  =33,1555337755555533331>33;=  ",
"  =;3,w15w637555555557w35>,3;=  ",
"  =;3,>1536375w588w557331>,33.  ",
"  -;,,55666333555555533311,00&. ",
" =33,>1536633775755333669909$&. ",
" =;3>>1536666666666666009&&**$@ ",
" =;,>&&&&00999q00000q99&&%%%oo@ ",
" -&&$$**%$&&0099qqq90$$*%oo+o@  ",
"  @@oo&&&%%*$$&09q90$&&&+o@@X-  ",
"  =X@@o++$&&&$*&099&*+oo@@OO;-  ",
"  =3ooX@oo++ooo%&0&$+@@X@5,<;=  ",
"  -;3<oo@##@@X@@#XX@@##O,,,<;=  ",
"  -;3<,##@OO@####@OO555,<<<3;=  ",
"   =;3:<<,,,,,225525,<<,3,33-   ",
"    =3333:<<<,,,<<,,,333,;;=    ",
"     -;;333,33,<333<<3;;3;=     ",
"      ===3;;;33;;;33;;;==-      ",
"         ====---=====--         "
};
