/* XPM */
static char *_b71e8a116d848b1fcceb480301edd2eWHWfX9xHQbah9ISt[] = {
/* columns rows colors chars-per-pixel */
"65 64 220 2 ",
"   c None",
".  c #030407",
"X  c #060708",
"o  c #080808",
"O  c #070808",
"+  c #1D160B",
"@  c #160F0A",
"#  c #2C1B0D",
"$  c #23180D",
"%  c #341D0E",
"&  c #2C290F",
"*  c #3A210F",
"=  c #37240F",
"-  c #3F2910",
";  c #3A3612",
":  c #2C2910",
">  c #4A2912",
",  c #562E13",
"<  c #582E13",
"1  c #443E13",
"2  c #4B3012",
"3  c #5A3914",
"4  c #693816",
"5  c #753D18",
"6  c #743D17",
"7  c #4B4415",
"8  c #524B16",
"9  c #7C4319",
"0  c #645B19",
"q  c #6C4216",
"w  c #796E1D",
"e  c #72681C",
"r  c #7A711F",
"t  c #6B611B",
"y  c #79702F",
"u  c #797351",
"i  c #87461A",
"p  c #964F1D",
"a  c #99521D",
"s  c #935A1C",
"d  c #9B5C1E",
"f  c #83591C",
"g  c #A7561F",
"h  c #B45A1F",
"j  c #8F6B1F",
"k  c #A4661F",
"l  c #B55D21",
"z  c #B85F21",
"x  c #AB5820",
"c  c #B76123",
"v  c #BA6222",
"b  c #BC6B23",
"n  c #B96629",
"m  c #BB6B2E",
"M  c #BA7023",
"N  c #AE7527",
"B  c #8E692A",
"V  c #C36B23",
"C  c #C86F24",
"Z  c #C16722",
"A  c #C27525",
"S  c #CC7325",
"D  c #C57A25",
"F  c #C97C27",
"G  c #C57B2C",
"H  c #D47B26",
"J  c #D07625",
"K  c #C27839",
"L  c #978A2D",
"P  c #A29326",
"I  c #A1932E",
"U  c #A59839",
"Y  c #BF9829",
"T  c #B8A72C",
"R  c #AFA13C",
"E  c #B2A33A",
"W  c #CA8227",
"Q  c #CB8428",
"!  c #CE8B29",
"~  c #DB8227",
"^  c #DE8528",
"/  c #D58627",
"(  c #D3942B",
")  c #D79D2B",
"_  c #D99B2C",
"`  c #D99C36",
"'  c #CA8636",
"]  c #E68C27",
"[  c #E08728",
"{  c #E68D29",
"}  c #E88F29",
"|  c #E98D27",
" . c #E79129",
".. c #E9932A",
"X. c #EB9C2B",
"o. c #EB9E3E",
"O. c #EB9D33",
"+. c #C4A72B",
"@. c #DCA42E",
"#. c #DEAA2E",
"$. c #CAB72F",
"%. c #D9A23A",
"&. c #DDA835",
"*. c #D2BF34",
"=. c #CFBC33",
"-. c #EDA32C",
";. c #E2AD2E",
":. c #EEAB2E",
">. c #E2A22C",
",. c #F1AE2F",
"<. c #E5B62F",
"1. c #F1B32E",
"2. c #F3BB2F",
"3. c #ECA133",
"4. c #EFAB31",
"5. c #EFAD3C",
"6. c #E0AE30",
"7. c #F1AE31",
"8. c #E4B431",
"9. c #E6B932",
"0. c #E7B935",
"q. c #F1B431",
"w. c #F3BB32",
"e. c #F3BC39",
"r. c #D7C336",
"t. c #F5C12F",
"y. c #ECC433",
"u. c #EEC738",
"i. c #F5C332",
"p. c #F5CB34",
"a. c #F8CD34",
"s. c #F5C43C",
"d. c #F7CA3A",
"f. c #F8CE3A",
"g. c #E6D138",
"h. c #F4D336",
"j. c #FAD435",
"k. c #F6DA36",
"l. c #FCDC37",
"z. c #FCDD39",
"x. c #F7D33C",
"c. c #FDE337",
"v. c #FEE439",
"b. c #FFE939",
"n. c #FBE437",
"m. c #A39B68",
"M. c #BEAE44",
"N. c #CB8643",
"B. c #CA8749",
"V. c #D39A5B",
"C. c #D29855",
"Z. c #D0934F",
"A. c #C8B843",
"S. c #D9A65D",
"D. c #DCA94C",
"F. c #EDA444",
"G. c #EDAA4F",
"H. c #EFAC43",
"J. c #F1B748",
"K. c #EFAE54",
"L. c #EFB053",
"P. c #E1B45B",
"I. c #F1B453",
"U. c #F2BA5B",
"Y. c #E6B942",
"T. c #DAA866",
"R. c #DEB170",
"E. c #DEB06F",
"W. c #E1B365",
"Q. c #F1B760",
"!. c #F1B962",
"~. c #E4BC7A",
"^. c #F8CC47",
"/. c #FBD847",
"(. c #FCDD55",
"). c #FBDB59",
"_. c #FFE543",
"`. c #FFE944",
"'. c #FDE34B",
"]. c #FFEB4C",
"[. c #FFEB53",
"{. c #FFEC5C",
"}. c #FDE55B",
"|. c #F4C468",
" X c #F4C573",
".X c #F6CB77",
"XX c #F6D67B",
"oX c #EFCA74",
"OX c #FDE464",
"+X c #FFEC64",
"@X c #FCE56C",
"#X c #FFED6B",
"$X c #FFF068",
"%X c #FFED73",
"&X c #FFED7C",
"*X c #F9E575",
"=X c #FFF274",
"-X c #FFF27C",
";X c #EBCA88",
":X c #EFD18E",
">X c #F7D687",
",X c #EFD392",
"<X c #FADE93",
"1X c #F3DA98",
"2X c #FDEC84",
"3X c #FEEE8B",
"4X c #F8E684",
"5X c #FFF184",
"6X c #FFF18B",
"7X c #FDEA9B",
"8X c #FBE699",
"9X c #FFF294",
"0X c #FFF39C",
"qX c #F9E7A1",
"wX c #FDEBA3",
"eX c #FCEDA9",
"rX c #F7E4A1",
"tX c #FFF3A4",
"yX c #FFF3AB",
"uX c #FFF5B0",
/* pixels */
"                                        o o o o                                   o o o o                                         ",
"                                      . w U m.I 8                               8 I m.U w .                                       ",
"                                      8 A.-XtX$XL 1                           1 L $XtX-XA.8                                       ",
"                                    ; g.3XyXtXtX+XT $                       $ T #XyXtXtX&Xg.;                                     ",
"                                . 0 r.3XyX6X].].`.k.$.:                   : $.*XtXtX[.].`.n.r.0 .                                 ",
"                              O e M.5XyX.XI.1.1.j.b.n.P 8               8 I *XtX<XU.q.1.i.b.b.T e O                               ",
"                              7 A.-XyX<XJ.-.-.-.w.l.v.b.L ;           ; L $XyX8X|.-.-.-.1.j.v.b.$.7                               ",
"                            ; g.3XyX8Xo.p.v.c.c.,.:.c.v.v.T +       + T #XyXwXL.q.c.c.c.i.X.j.v.v.g.;                             ",
"                        . t r.3XyX>XH.a.c.j.-.-...^ Q h.b.k.+.; . ; +.*XtX7XG.s.l.z.:.-.X.} F 9.b.v.*.t .                         ",
"                        . y -XyX>XU.w.v.a.:.} } } ^ S ) p.b.n.j q B @XtX<X|.w.l.l.q. .} } } S ( 9.v.b.w .                         ",
"                        . u uXyXG.1.v.l.-.} } } } } { v #.b.c.-.| F.wXuX XX.c.l.w.} } } { ^ } C W v.b.w .                         ",
"                        . u yXyXG.1.l.X. .} } } } } [ v #.b.c.-.} F.wXyX XX.l.,. .} } } H v [ C Q v.b.w .                         ",
"                        . y #XtXG.1.l...} } } } H Z Z l S.-Xc.-.} 3.}.0X XX.c.:.} } } } H l Z v N.2X`.w .                         ",
"                        . w ].tXG.-.w. .} } } H Z l l h R.0XOX3.} -.c.9X X..w.X.} } } ~ S l l h B.wX=Xy .                         ",
"                        . w ].9XJ. .[ } } } ~ v l l l m ~.yX7XF.} -.c.5X|...[ } } } [ V l l l n C.yXtXu .                         ",
"                    o o X w b.`.v.;.Z [ } H v l l l n ;XeX9X_.-.} -.c.`._.p.V ~ } [ v l l l l E.wXtX{.r X o o                     ",
"                . 0 U m.U +.w.v.b.h.;.S C Z l l h K oXeX5X(.q.i.i.i.1.l.b.z.9.Q V V l l l n E.1X0X+Xw.+.U m.U 0 .                 ",
"                7 R =XyX=X^.,.p.z.b.l.( b l l l K E.yX6X).t.7.(.+X(.7.i.j.b.b.@.A l l l m V.qX0X@Xp.,.^.=XyX=XR 7                 ",
"              : *.&XyXtXtX%Xj.X.p.v.v.v.( v b m ~.yX0X'.1.4.'.9XyX6Xv.:.q.c.v.b.8.b b n V.yXtX+Xp.X.x.&XyXtXtX#X=.:               ",
"            1 r.4XyX0X[.].`.v.l.:.w.b.v.k.h.x.>XeX9X'.4.2.'.0XyX&X`.v.l.w.-.c.b.l.h.h.XXrXtX{.e.:.x.3XyX9X].].`.n.r.1             ",
"          0 E &XtX>XI.q.1.a.b.v.a.w.w.c.+X&X5XyX6X).q.2.).6XyX XJ.w.v.b.j.w.q.l.[.&X&X0X0XOXe.2.^.&XtX>XI.q.1.a.b.v.T 0           ",
"        1 E =XyX<XU.-.-.-.w.j.v.b.a.:.a.*X0XyX9X(.t.4.(.6XeX>X5.-.:.a.c.b.l.:.i.).9XyX0X*Xa.:.^.%XyX<XU.-.-.-.w.j.v.b.T 1         ",
"      & r.&XyX7XF.w.v.c.c.w.X.l.v.v.l.X.p.+X7X'.q.4._.9XyX>XO.j.v.j.X.p.v.v.c.:.q.'.7X+Xp.X.z.&XyX7XF.w.v.c.c.w.X.l.v.v.r.&       ",
"    7 =.4XtX<XF.d.c.l.-.-.X.[ F u.b.v.j.1.3.F.-.2.(.9XyX X5.j.v.b.v.j.( #.b.v.l.i.-.F.3.1.x.2XtX<XF.d.c.l.-.-.X.^ F p.b.n.$.7     ",
"  0 U %XtX>XU.w.c.j.1.} } } [ S ( y.b.v.:.{  .1.).5XeX.XJ.i.v.i.w.w.w./ / ;.c.b.i.} } ] H.&XtX>XU.w.c.j.,.} } } [ S ( y.b.b.N 3   ",
"o P +XyXyXQ.-.v.l.1.} } } } } } Z ( b.v.:.} ..l.2XuXwXo.w.v.j.X.} } } } J A l.b.i.} } } L.yXyXU.-.v.l.,.} } } } } } Z ( b.v.,.s o ",
"o P {.yXyX!.-.z.-. .} } } } } } Z ( b.v.:.{ X.l.&XyXwXo.i.j...} } } } } S A z.b.i.} } ] L.yXyXU.-.z.-. .} } } } } } Z ( b.v.,.s o ",
"o P `.+XtX!.-.z.X.} } } } } [ C l C.2X_.:.} X.l.].%XwXo.i.j. .} } } } S v K 4X[.i.} } { 5.+XtXU.-.z.X.} } } } } [ C l C.5X_.,.s o ",
"o P b.`.0X!.-.c.X.} } } } ^ S l h V.0X_.:.} X.l.b.{.wXo.i.j. .} } [ H v h K qX{.i.} } { :._.0XQ.-.c.X.} } } } ~ S l h V.0X_.,.s o ",
"o P b.`.0X!.-.j.X.} } } [ S l l h V.tX[.4.} X.l.b.{.wXo.2.p. .} { H l l h K qX#Xs.} } { :.`.0XQ.-.j.X.} } } [ S l l h V.0X[.7.s o ",
"o P b.`.0X!.} .. .} } } C l l l h V.yXtXL.} X.l.b.{.wXo. ...} } H v l l l K qXtX.X} } } :.`.0XQ.} .. .} } } V l l l h V.yXtXI.s o ",
"o f ;.b.{./.:.S [  .[ C v l l l T.,XtX#X5.]  .-.j.`.{.f.( S }  .S l l h B.;XeX-X^.} } { :.b.{./.:.C [  .[ C v l l l T.,XtX#X` 9 o ",
"o 6 D 9.n.b.p.! H H S l l l n Z.1XtX&Xd.1.5.L.4.w.j.b.b.8.Q H H C l l N.~.yX2X/.2.4.L.5.1.p.c.b.p.! H H S l l l n Z.1XtX*X0.D 6 o ",
"o 5 z b y.c.v.z.W v l l l c B.qXtX%Xj.X.f.#XtX[.q.:.l.v.b.y.b c l c m :XyX9X/.:.q.[.tX#Xf.X.j.v.v.l.W v l l l c B.wXtX%Xy.b z 5 o ",
"o 5 z c b 8.b.v.k.( l l h V.8XyX+Xd.-.j.&XtXyXtX}.i.-.l.b.c.p.A h K ,XeX5X/.-.i.}.tXyXtX&Xj.-.i.b.v.k.( l l h V.8XyX+X0.b l z 5 o ",
"o 5 v l l F #.v.b.p.;.6.W.,XtX#Xs.1.d.%XtX0X#X#X].l.i.q.j.b.v.<.D.;XyX-X^.1.i.OX9XtX%X#X{.v.i.q.i.v.b.p.;.6.W.,XtX#X&.D l l z 5 o ",
"o 5 z l Z Z Q p.c.].{.{.0XtX&Xf.,.s.+XtX8X|.a.a.l.b.c.1.w.j.v.[.5XyX3X/.2.q.}.9XwXXXf.a.j.v.b.i.1.j.c.].{.{.0XtX&Xf.Q Z Z l z 5 o ",
"o 5 z v ^ } } ..a.#XtXyXyX%Xj.X.f.#XyXwXI.......i.v.v.v.w.:.v.3XtX9Xv.:.w.[.tXyX X......,.c.v.v.a.X.j.%XtXyXyX%Xp...} } ^ v z 5 o ",
"o 5 z v ^ } } } F 0.+XtX#Xs.-.j.&XtXwXG.s.j.j.j.q.q.b.b.l.i.-./.[./.-.i.OX0XyX!.5.j.j.l.i.-.l.b.c.j.-.s.#XtX+X0.F } } } ^ v z 5 o ",
"  > 5 v [ } } } H / %.T.%.;.s.%XtX<X!.w.l.l.w.w.X. .@.l.b.l.w.w.2.2.w.OX9XwX XJ.a.c.i.w.:.} ) p.b.v.i.;.%.T.%./ H } } } [ v 5 >   ",
"    % p H [ } } } S l h h ` +XyX7X|.:.c.l.w.} } } ~ V 9.l.b.c.-.{ 3.[.0XwXXX3.j.c.p...} } [ V @.h.v.b.) l h l S } } } [ H p %     ",
"      $ a H } } } S l l h S.yXyXK.q.c.c.,. .} } } } [ Z #.b.c.X.] F.wXyX X3.z.v.i. .} } } } } S ! v.b.) l l l S } } } H a $       ",
"        # d ..} } S l l h T.uXyXG.1.l.:...} } } } } { v #.b.c.Q Z N.eXuX XX.l.w.X.} } } } } } C W b.b.) l l l S } } ..d #         ",
"          3 k } } S l l l D.5XtXG.1.l...} } } } ~ H S v D.+Xn.D h K *XtX XX.l.:.} } } } [ H H v ' +X`.) l l l S } } k 3           ",
"            - A ~ S l l l ) ].tXG.:.a...} } } [ C l l l R.9X'.G l D z.9X XX.j.-.} } } [ H l l h B.wX{.` l l l S ~ A -             ",
"              $ a v l l l ) ].tXG. ...} } } [ v l l l l R.yX7XK h D v.9X X} .. .} } } S l l l l B.yXtXS.h l l v a $               ",
"                * 9 z l l ) `.{./.>.C {  .~ V l l l c E.1X0X}.G l D c.[.(.w.S ~  .[ S v l l h C.:XyX%X%.l z z 9 *                 ",
"                . > i l l Q 9.b.b.y.! H H S l l l m V.qX0X@X8.b l b 8.l.b.k.( / H H v l l c B.:XtX&Xu.N 5 5 5 > .                 ",
"                    # a g g A h.c.b.h.D c l l l n C.yXtXOX<.c l l l c 9.c.v.v.( v l l l c K 8XyX2Xh.A < O o o                     ",
"                      + + 4 v M y.b.v.h.Q l l l E.qXtX{.&.b l l l l l b @.b.v.l.@.l l h B.8XyX%Xu.M v , X                         ",
"                        . , l l W 9.b.b.y.;.8.W.1X0XOX&.A l l l l l l l A @.c.b.h.6.6.P.;XyX%XY.W l l , X                         ",
"                        X , l l l W y.c.[.{.+XtX0X@X8.b l l l l l l l l l b 8.l.`.{.{.9XtX2Xu.W l l l , X                         ",
"                        X , l l l v A h.&XtXyXtX+X9.v v l l l l l l l l l l v 9.+XtXyXyX2Xx.A v l l l , X                         ",
"                        X , l l H ^ [ X.^.%XtX{.e...^ ^ C l l l l l l l l v ~ ..e.{.tX%X^.X.[ ^ H l l , X                         ",
"                        X , z l ~ } } } :.^.@Xe.X.} } } S l l 4 , 4 l l Z H } } X.e.@X^.:.} } } ~ l z , X                         ",
"                        X > p l ~ } } } { :.l...} } } } S x i $ . $ i g S } } } } X.l.:.{ } } } ~ l p > X                         ",
"                            # g H } } } } ,.l.X.} } } } S i @       @ i S } } } } X.l.,.} } } } H g #                             ",
"                              % a H } } } ,.l.X.} } { S 6 #           # 6 S { } } X.l.,.} } } H a %                               ",
"                              O , d  .} } ,.l.X.} } ^ 9 *               * 9 ^ } } X.l.,.} }  .d , O                               ",
"                                . 3 D { } ,.l.X.} ^ M #                   # M ^ } X.l.,.} { D 3 .                                 ",
"                                    = / } ,.l.X.} k +                       + k } X.l.,.} / =                                     ",
"                                      2 Y l.b.j.j -                           - j j.b.l.Y 2                                       ",
"                                      O r P P P 8                               8 P P P r O                                       ",
"                                        o o o o                                   o o o o                                         "
};
