/* XPM */
static char *c2e35c1af9484dd8892292d74a28d793e0dfSdFQ77U4YOEj[] = {
/* columns rows colors chars-per-pixel */
"64 64 57 1 ",
"  c None",
". c None",
"X c #0D0706",
"o c #150C0A",
"O c #100907",
"+ c black",
"@ c black",
"# c black",
"$ c #030201",
"% c #120B08",
"& c black",
"* c black",
"= c black",
"- c black",
"; c #120C0D",
": c #120B09",
"> c black",
", c #512D27",
"< c #0C0706",
"1 c #633730",
"2 c #663931",
"3 c #572B29",
"4 c #643730",
"5 c #61342E",
"6 c #AF7458",
"7 c #532827",
"8 c #AC7256",
"9 c #A46B52",
"0 c #0D0707",
"q c #59322B",
"w c #6F4238",
"e c #6B3E35",
"r c #9F674F",
"t c #74463A",
"y c #7C4D3D",
"u c #5F312D",
"i c #8D5845",
"p c #9B634D",
"a c #A86E54",
"s c #726C71",
"d c #B07558",
"f c #D6A27C",
"g c #582C2A",
"h c #CA9674",
"j c #CB9E7D",
"k c #DAAE89",
"l c #B78367",
"z c #945E49",
"x c #4D2624",
"c c #C18D6D",
"v c #442020",
"b c #817C84",
"n c #5A3433",
"m c #23222E",
"M c #605857",
"N c #6A6465",
"B c #7D787F",
/* pixels */
"                           @&=o00o=&@                           ",
"                         @&$<o,qq,o<$&@                         ",
"                       @&$Xo.x1221x.oX$&@                       ",
"                     @&$Xo.x5g4224g5x.oX$&@                     ",
"                   @&$Xo,q1g53122135g1q,oX$&@                   ",
"                 @&$Xo.x1243531221353421x.oX$&@                 ",
"               @&$Xo,q1g4213531221353124g1q,oX$&@               ",
"             @&$Xo.x124312135312213531213421x.oX$&@             ",
"           @&$Xo,q1g421312135312213531213124g1q,oX$&@           ",
"         @&$Xo.x12431213121353122135312131213421x.oX$&@         ",
"       @&$Xo,q1g42131213121353122135312131213124g1q,oX$&@       ",
"     @&$Xo.x1243121312131213531221353121312131213121x.oX$&@     ",
"   @&$Xo,q1g42131213121312135312213531213121geweneweneq,oX$&@   ",
" @&$Xo.x124312131213121312135312213531213121nsssssssssw1x.oX$&@ ",
" $Xo,q1g421312131213121312135312213531213121nsmmmmmmmsw1g1q,oX$ ",
"$X.x1243121312131213121312135312213531213121nN00mmm00sw13421x.X$",
"o,1g4213121312131213121312135312213531213121nsm0;;;;msw13124g1,o",
"0q431213121312131213121312135312213531213121nssssssssse1312134q0",
"0q431213121312131213121312135312213531213121nNsssssssM21312134q0",
"0q431213121312131213121312135312213531213121nBbbbbbbbNe1312134q0",
"0q431213121312131213121312135312213531213121nsbbbbbbBNe1312134q0",
"0q431213121312131213121312135312213531213124gMMssssssM24312134q0",
"0q4312131213121312131213121353122135312131243nMNBBbbBNe1312134q0",
"0q43121312131213121312131213531221353121312135nnNNBbBNe1312134q0",
"0q4312131213121312131213121353122135312131213145qnMMMM24312134q0",
"0q43121312131213121312131213531221353121312131243uqnMMe1312134q0",
"0q43121312131213121312131213531221353121312131213141qn44312134q0",
"0q431213121312131213121312135312213531213121312131243521312134q0",
"0q431213121312131213121312135342243531213121312131213421312134q0",
"0q431213121312131213121312135354453531213121312131213121312134q0",
"0q43121312131213121312131243u777777u34213121312131213121312134q0",
"0q431213121312131213121342577777777775243121312131213121312134q0",
"0q431213121312131213124355377354453773553421312131213121312134q0",
"0q431213121312131213425777735542245537777524312131213121312134q0",
"0q4312131213121312435537735441ewwe1445377355342131213121312134q0",
"0q43121312131213425777735422ewraarwe22453777752431213121312134q0",
"0q431213121312435537735542etrp8dd8prte245537735534213121312134q0",
"0q4312131213425777735441etra9za99az9arte1445377775243121312134q0",
"0q43121312435537735422ewra6a22p22p22a6arwe22453773553421312134q0",
"0q431213425777735422etpp8ddawezeezewadd8ppte224537777524312134q0",
"0q4312435537735542etra8r8666rw5225wr6668r8arte2455377355342134q0",
"0q43425777735441etra6d8r86668zw22wz86668r8d6arte14453777752434q0",
"0q435537735422ewra6ddd8r86668ppeepp86668r8ddd6arwe224537735534q0",
"0q57777354245ezir999999r86668r9229r86668r999999rize54245377775q0",
"0v777355425g2eww55wwww4i86668r8998r86668i4wwww55wwe2g524553777v0",
"O0vx7541eegwjkkjwwjkkjw49d668zr99rz866d94wjkkjwwjkkjwgee1457xv0O",
"$:;0v2ewrpelfffhtthfffle9d66p422224p66d9elfffhtthfffleprwe2v0;:$",
"+->%;tiz89elccclwwlcccle9d6p44zppz44p6d9elccclwwlcccle98zit;%>-+",
"+=->Oyip89u511112211115u96p44iteeti44p69u511112211115u98piyO>-=+",
"+=-*Oyip895wtttt22ttttw59924i2tytt2i42995wtttt22ttttw598piyO*-=+",
"+=-*Oyip89wjkkkjttjkkkjw992ittjkkjtti299wjkkkjttjkkkjw98piyO*-=+",
"+=-*Oyip89ecfffhtthfffce995etjffffjte599ecfffhtthfffce98piyO*-=+",
"+=-*Oyip895tlcclwwlcclt599u5thfjjfht5u995tlcclwwlcclt598piyO*-=+",
"+=-*Oyip8923ewwe33ewwe3499u5tchhhhct5u9943ewwe33ewwe3298piyO*-=+",
"+=-*Oyip86p2uuuuuuuuuu1i89u1wraaaare1u98i1uuuuuuuuuu2p68piyO*-=+",
"+=-*Oyip866999rzr999999r89u12uuu5eee4u98r999999rzr999668piyO*-=+",
"+=-*Oyip866ddd8r8ddddd8r89u14351e8rzeu98r8ddddd8r8ddd668piyO*-=+",
"+=-*Oyip8666668r8666668r89u143422w551u98r8666668r8666668piyO*-=+",
"+=-*Oyip8666668r8666668r89u1431221351u98r8666668r8666668piyO*-=+",
" +$*Oyiia666668r8666668r89u1434224341u98r8666668r8666669iiyO*$+ ",
"  @#:wiyza8888apa88888aparu5535445355urapa88888apa8888azyiw:#@@ ",
"   +*:wwyyyyyyytyyyyyyytyt777773377777tytyyyyyyytyyyyyyyww:*+   ",
"    +*X%%%%%%%%%%%%%%%%%%o;vvxvvvvxvv;o%%%%%%%%%%%%%%%%%%X*+    ",
"     +###################=O0000000000O=###################+     "
};
