/* XPM */
static char *c1a057a9a56c45e2cac29f211700c13bcmBgOU35RKK9720t[] = {
/* columns rows colors chars-per-pixel */
"64 64 2 1 ",
"  c #AABACE",
". c #BCCBD5",
/* pixels */
"................................                                ",
"................................                                ",
"................................                                ",
"................................                                ",
"................................                                ",
".....                      .....     ......................     ",
".....                      .....     ......................     ",
".....                      .....     ......................     ",
".....                      .....     ......................     ",
".....                      .....     ......................     ",
".....                      .....     ......................     ",
".....                      .....     ......................     ",
".....                      .....     ......................     ",
".....                      .....     ......................     ",
".....                      .....     ......................     ",
".....                      .....     ......................     ",
".....                      .....     ......................     ",
".....                      .....     ......................     ",
".....                      .....     ......................     ",
".....                      .....     ......................     ",
".....                      .....     ......................     ",
".....                      .....     ......................     ",
".....                      .....     ......................     ",
".....                      .....     ......................     ",
".....                      .....     ......................     ",
".....                      .....     ......................     ",
".....                      .....     ......................     ",
"................................                                ",
"................................                                ",
"................................                                ",
"................................                                ",
"................................                                ",
"                                ................................",
"                                ................................",
"                                ................................",
"                                ................................",
"                                ................................",
"     ......................     .....                      .....",
"     ......................     .....                      .....",
"     ......................     .....                      .....",
"     ......................     .....                      .....",
"     ......................     .....                      .....",
"     ......................     .....                      .....",
"     ......................     .....                      .....",
"     ......................     .....                      .....",
"     ......................     .....                      .....",
"     ......................     .....                      .....",
"     ......................     .....                      .....",
"     ......................     .....                      .....",
"     ......................     .....                      .....",
"     ......................     .....                      .....",
"     ......................     .....                      .....",
"     ......................     .....                      .....",
"     ......................     .....                      .....",
"     ......................     .....                      .....",
"     ......................     .....                      .....",
"     ......................     .....                      .....",
"     ......................     .....                      .....",
"     ......................     .....                      .....",
"                                ................................",
"                                ................................",
"                                ................................",
"                                ................................",
"                                ................................"
};
