/* XPM */
static char *_5ce11a2746043e3e7f0d0ab1885acb4InPdZ7SgWr7NEJlz[] = {
/* columns rows colors chars-per-pixel */
"64 64 135 2 ",
"   c #2D7F36",
".  c #2E7D38",
"X  c #307D38",
"o  c #288F2D",
"O  c #27912C",
"+  c #2B952D",
"@  c #2D9A2D",
"#  c #319D2E",
"$  c #2C8434",
"%  c #2D8B32",
"&  c #308537",
"*  c #308638",
"=  c #2E9231",
"-  c #2C9A31",
";  c #329433",
":  c #399637",
">  c #349C32",
",  c #3A9D35",
"<  c #3F943C",
"1  c #3C9E3A",
"2  c #2EA12B",
"3  c #32A22D",
"4  c #38A92F",
"5  c #2EA130",
"6  c #36A332",
"7  c #38A736",
"8  c #3DA434",
"9  c #3BA533",
"0  c #39A931",
"q  c #3AA931",
"w  c #3BA931",
"e  c #3AAE30",
"r  c #3CAF30",
"t  c #3CAF31",
"y  c #3EAD32",
"u  c #3FAD33",
"i  c #3EA934",
"p  c #3FAA34",
"a  c #3DAC34",
"s  c #3CAB32",
"d  c #3DA038",
"f  c #3AAB38",
"g  c #3BAC38",
"h  c #3DAE38",
"j  c #3EAF38",
"k  c #3EAE39",
"l  c #3CAD38",
"z  c #3FB032",
"x  c #3FB036",
"c  c #3FB034",
"v  c #419F37",
"b  c #419F37",
"n  c #41913E",
"m  c #41953C",
"M  c #43953D",
"N  c #41933D",
"B  c #42A535",
"V  c #42A535",
"C  c #41AC33",
"Z  c #40AF33",
"A  c #41A835",
"S  c #41A935",
"D  c #42A935",
"F  c #42AA35",
"G  c #40AD34",
"H  c #43AD34",
"J  c #41AC37",
"K  c #42AB35",
"L  c #49AC37",
"P  c #41A738",
"I  c #45A33E",
"U  c #45A53D",
"Y  c #45A43E",
"T  c #46A43E",
"R  c #45A43D",
"E  c #46A938",
"W  c #46A938",
"Q  c #4BAE39",
"!  c #4BAE39",
"~  c #44B533",
"^  c #45B235",
"/  c #47B235",
"(  c #46B535",
")  c #45B634",
"_  c #45B335",
"`  c #49B136",
"'  c #49B136",
"]  c #47B936",
"[  c #45B339",
"{  c #46B339",
"}  c #46B43A",
"|  c #46B439",
" . c #4FB338",
".. c #4FB438",
"X. c #4EB738",
"o. c #48B03C",
"O. c #49B13C",
"+. c #49B03D",
"@. c #4BB33B",
"#. c #4BB93A",
"$. c #4EB838",
"%. c #4FB838",
"&. c #4CBA3B",
"*. c #4DBB3B",
"=. c #4EBB3B",
"-. c #4DBB3A",
";. c #50B439",
":. c #52B539",
">. c #50B638",
",. c #52B639",
"<. c #51B53A",
"1. c #54B63A",
"2. c #55B63A",
"3. c #55B73A",
"4. c #51B539",
"5. c #51B838",
"6. c #54BB39",
"7. c #56B93B",
"8. c #55BA3A",
"9. c #55BB3A",
"0. c #54BC3A",
"q. c #58B93C",
"w. c #59BC3C",
"e. c #5ABC3C",
"r. c #5CBC3E",
"t. c #5ABA3D",
"y. c #5CC13D",
"u. c #5CC03E",
"i. c #5DC13E",
"p. c #5CC33D",
"a. c #5DC93D",
"s. c #5DC93D",
"d. c #60C43D",
"f. c #67CD40",
"g. c #68CE41",
/* pixels */
"+ 1.H + @ + @ # @ @ @ @ 6 # @ @ + 1.H + @ + @ 6 9 + 6 # @ @ e.> + 1.H + @ + @ # @ @ @ @ 6 # @ @ + 1.H + @ + @ 6 9 + 6 # @ @ e.> ",
",.X.{ > + # y.y @ 3 @ @ # ; @ + X.*.{ > + # y.z ; O y p o F *.+  .*.{ > + # y.y @ 3 @ @ # ; @ + X.*.{ > + # y.z ; O y p o F *.@ ",
"8 o.> ; # H I % @ # @ @ + @ 3 @ 8 o.> ; # H Y % / w @ ; % 7 > $ 8 o.> ; # H I % @ # @ @ + @ 3 @ 8 o.> ; # H Y % / w @ ; % 7 > $ ",
"$ = ; 3 E + + + 3 @ @ @ 3 @ @ @ $ = ; 3 E + + O a x + q @ + + = $ = ; 3 E + + + 3 @ @ @ 3 @ @ @ $ = ; 3 E + + O a x + q @ + + = ",
"9.9 9.3 + q.# @ 3 @ @ @ 3 @ 3 3 5.9 9.3 + q.# + @ 7 $ @ v # 3 q ,.9 9.3 + q.3 @ 3 @ @ @ 3 @ 3 3 5.9 9.3 + q.# + @ 7 $ @ v # 3 q ",
"M h 1 $ F #.# # @ > + @ + @ 3 @ M h 1 $ F #.# # @ @ > @ / H 2 ; n h 1 $ F #.# # @ > + @ + @ 3 @ M h 1 $ F #.# # @ @ > @ / H 2 ; ",
"O + B Q 7 1 r.) @ ; + 3 @ @ @ > o + B Q 7 1 r.~ 9 > e = 6 f = @ O + B Q 7 1 r.) @ ; + 3 @ @ @ > o + B Q 7 1 r.~ 9 > e = 6 g = @ ",
"@ @ : Y @ P Y & @ @ @ @ @ + # ; @ + : Y @ 8 Y $ @ ; @ + @ > & + @ @ : Y @ P Y & @ @ @ @ @ + # ; @ + : Y @ 8 Y $ @ ; @ + @ > & + ",
"@ @ + O 6 @ O ; 9 + 6 # @ @ 9.# 9 > O O > ,.+ = + ,.C + @ + @ # @ @ + O 6 @ O ; 9 + 6 # @ @ 9.# 9 > O O > ,.+ = + ,.C + @ + @ # ",
"3 3 @ @ # ; @ @ > O y p o F *.2 = ; > + ` a.) + ,.*.} > + > y.y @ 3 @ @ # ; @ @ > O y p o F *.2 = ; > + ` a.) + ,.*.} > + > y.C ",
"@ @ @ @ + @ 3 + / w @ ; % 7 > $ # d.0.@ 6 > ) + 8 o.> ; # H I % @ # @ @ + @ 3 + / w @ ; % 7 > $ # d.0.@ 6 > ) + 8 o.> ; # H I % ",
"3 @ @ @ 3 @ @ + p x + q @ + + O / X.F @ O $ > = $ = ; 3 E + + + 3 @ @ @ 3 @ @ + p x + q @ + + O / X.F @ O $ > = $ = ; 3 E + + + ",
"3 @ @ @ 3 @ 3 3 @ 7 $ @ v # 3 9 @ ; $ L H @ # @ 5.9 9.3 + q.# @ 3 @ @ @ 3 @ 3 # @ 7 $ @ v # 3 9 @ ; $ L H @ # @ 5.9 9.3 + q.# @ ",
"@ > + @ + @ 3 @ @ @ > @ / H 2 ; 6 z 4 p.-.0.g.9 < h 1 $ F #.# # @ > + @ + @ 3 @ @ @ > @ / H 2 ; 6 z 4 p.-.0.g.8 < h 1 $ F #.# # ",
"@ ; + 3 @ @ @ > 9 > e = 6 h = @ 8 : ; > p / 8 8 o + B Q 7 d r.) @ ; + 3 @ @ @ > 9 > e = 6 h = @ 8 : ; > p / 8 8 o + B Q 7 d q.] ",
"@ @ @ @ @ + # ; > = @ + + - & + + + + % ; = . % @ + : Y @ 8 I & @ @ @ @ @ + # ; > = @ + + - & + + + + % ; = . % @ + : Y 2 8 I & ",
"9 + 6 # @ @ 9.# 9 > + @ > ,.# @ @ @ @ @ 3 @ @ @ 8 > O O > ,.+ ; 9 + 6 # @ @ 9.# 9 > + @ > ,.# @ @ @ @ @ 3 @ @ @ 8 > O O > ,.+ % ",
"> O y p o F *.2 = ; > + ` a./ @ 3 3 @ @ # ; @ @ = ; > + ` a.) @ > O y p o F *.2 = ; > + ` a./ @ 3 3 @ @ # ; @ @ = ; > + ` a.) @ ",
"` w @ ; % 7 > $ # d.0.@ 6 > ) @ @ # @ @ + @ 3 @ # d.0.@ 6 > ] + / w @ ; % 7 > $ # d.0.@ 6 > ) @ @ # @ @ + @ 3 @ # d.0.@ 6 > ) @ ",
"a a + q @ @ + O / X.F @ O % > = 2 @ @ @ 3 @ @ + / X.F @ O % > % y x + q @ @ + O / X.F @ O % > = 2 @ @ @ 3 @ @ + / X.F @ O $ > % ",
"@ 7 $ + v # 3 9 @ ;   L H @ > @ 3 @ @ @ 3 @ 3 # @ ;   L H @ > @ @ 7 $ + v # 3 9 @ ;   L H @ > @ 3 @ @ @ 3 @ 3 # @ ;   L H @ > @ ",
"@ @ > @ / H 2 ; 6 z 4 p.-.0.g.6 @ > + @ + @ 3 @ 6 y 4 p.-.0.g.9 @ @ > @ / H 2 ; 6 z 4 p.-.0.g.6 @ > + @ + @ 3 @ 6 y 4 p.-.0.f.9 ",
"q > e = 6 g = @ 8 : ; > p / 8 8 @ ; + 3 @ @ @ 6 , : ; > p / 8 9 9 > e = 6 g = @ 8 : ; > p / 8 8 @ ; + 3 @ @ @ 6 , : ; > p / 8 p ",
"# = @ + + > * + + + + % ; = X ; @ @ @ # @ @ @ ; + + + % ; = X ; # = @ + + > * + + + + % ; = X ; @ @ @ # @ @ @ ; + + + % ; = X ; ",
"@ @ @ @ 6 @ + # 9 + 6 3 + @ 0.# + ,.C + @ @ @ 3 9 + 6 3 + @ 0.# @ @ @ @ 6 @ + # 9 + 6 3 + @ 0.# + ,.C + @ @ @ 3 9 + 6 3 + @ 0.# ",
"3 3 @ @ # ; @ @ > O y p o F =.+ ,.*.{ > + # y.~ ; O y p o F *.@ 3 3 @ @ # ; @ @ > O y p o F =.+ ,.*.{ > + # y.~ ; O y p o F *.@ ",
"@ @ @ @ + @ 3 + / w @ ; % 7 > $ 8 o.> ; # H Y % / w @ ; % 7 > $ @ 2 @ @ + @ 3 + / w @ ; % 7 > $ 8 o.> ; # H Y % / w @ ; % 7 > $ ",
"3 @ @ @ 3 @ @ + p x + q @ + + = $ = ; 3 E + + O a x + q @ + + = @ @ @ @ 3 @ @ + p x + q @ + + = $ = ; 3 E + + O a x + q @ + + = ",
"3 @ @ @ 3 @ 3 # @ 7 $ @ v # 3 q ,.9 9.3 + q.# + @ 7 $ @ v # 3 q @ @ @ @ 3 @ 3 # @ 7 $ @ v # 3 q ,.9 9.3 + q.# + @ 7 $ @ v # 3 q ",
"@ > + @ + @ 3 @ @ @ > @ / H 2 ; n h 1 $ F #.# # @ @ > @ / H 2 ; + > + @ + @ 3 @ @ @ > @ / H 2 ; n h 1 $ F #.# # @ @ > @ / H 2 ; ",
"@ ; + 3 @ @ @ > 9 > e = 6 f = + O + B Q 7 1 r.~ 9 > e = 3 g = + @ ; + 3 @ @ @ > 9 > e = 6 f = + O + B Q 7 1 r.~ 9 > e = 3 g = @ ",
"@ @ @ # @ @ @ ; > = @ + + > * + @ @ : Y 5 P Y $ # = @ + @ > * @ @ @ @ # @ @ @ ; > = @ + + > * + @ @ : Y 5 P Y $ # = @ + @ > * @ ",
"+ ,.C + @ + @ @ @ @ @ @ 6 @ @ @ + ,.B O @ @ + > 9 + 6 # @ @ 0.> + ,.C + @ + @ @ @ @ @ @ 6 @ @ @ + ,.B O @ @ + > 9 + 6 # @ @ 0.# ",
",.*.} > + # y.y @ 3 @ @ # ; @ + ,.*.} > + # y.z ; O y p o F =.+ ,.*.{ > + # y.y @ 3 @ @ # ; @ + ,.*.} > + # y.z ; O y p o F *.@ ",
"8 o.> ; # H I % @ # @ @ + @ 3 @ 8 o.> ; # H Y % / w @ ; % 7 > $ 8 o.> ; # H I % @ # @ @ + @ 3 @ 8 o.> ; # H Y % / w @ ; % 7 > $ ",
"$ = ; 3 E + + + 3 @ @ @ 3 @ @ @ $ = ; 3 E + + O a x + q @ + + = $ = ; 3 E + + + 3 @ @ @ 3 @ @ @ $ = ; 3 E + + O a x + q @ + + = ",
"9.9 9.3 + q.# @ 3 @ @ @ 3 @ 3 3 5.9 9.3 + q.# + @ 7 $ @ v # 3 q ,.9 9.3 + q.# @ 3 @ @ @ 3 @ 3 3 5.9 9.3 + q.# + @ 7 $ @ v # 3 q ",
"M h 1 $ F #.# # @ > + @ + @ 3 @ M h 1 $ F #.# # @ @ > @ / H 2 ; n h 1 $ F #.# # @ > + @ + @ 3 @ M h 1 $ F #.# # @ @ > @ / H 2 ; ",
"O + B Q 7 1 r.) @ ; + 3 @ @ @ > o + B Q 7 1 r.~ 9 > e = 6 f = @ O + B Q 7 1 r.) @ ; + 3 @ @ @ > o + B Q 7 1 r.~ 9 > e = 6 g = @ ",
"@ @ : Y @ P Y & @ @ @ @ @ + # ; @ + : Y @ 8 Y $ @ ; @ + @ > & + @ @ : Y @ P Y & @ @ @ @ @ + # ; @ + : Y @ 8 Y $ @ ; @ + @ > & + ",
"@ @ + O 6 @ O ; 9 + 6 # @ @ 9.# 9 > O O > ,.+ = + ,.C + @ + @ # @ @ + O 6 @ O ; 9 + 6 # @ @ 9.# 9 > O O > ,.+ = + ,.C + @ + @ # ",
"3 3 @ @ # ; @ @ > O y p o F *.2 = ; > + ` a.) + ,.*.} > + > y.y @ 3 @ @ # ; @ @ > O y p o F *.2 = ; > + ` a.) + ,.*.} > + > y.C ",
"@ @ @ @ + @ 3 + / w @ ; % 7 > $ # d.0.@ 6 > ) + 8 o.> ; # H I % @ # @ @ + @ 3 + / w @ ; % 7 > $ # d.0.@ 6 > ) + 8 o.> ; # H I % ",
"3 @ @ @ 3 @ @ + p x + q @ + + O / X.F @ O $ > = $ = ; 3 E + + + 3 @ @ @ 3 @ @ + p x + q @ + + O / X.F @ O $ > = $ = ; 3 E + + + ",
"3 @ @ @ 3 @ 3 # @ 7 $ @ v # 3 9 @ ; $ L H @ # @ 5.9 9.3 + q.# @ 3 @ @ @ 3 @ 3 # @ 7 $ @ v # 3 9 @ ; $ L H @ # @ 5.9 9.3 + q.# @ ",
"@ > + @ + @ 3 @ @ @ > @ / H 2 ; 6 z 4 p.-.0.g.8 < h 1 $ F #.# # @ > + @ + @ 3 @ @ @ > @ / H 2 ; 6 z 4 p.-.0.g.8 < h 1 $ F #.# # ",
"@ ; + 3 @ @ @ > 9 > e = 6 h = @ 8 : ; > p ) 8 8 o + B Q 7 d r.) @ ; + 3 @ @ @ > 9 > e = 6 h = @ 8 : ; > p ) 8 8 o + B Q 7 d q.] ",
"@ @ @ @ @ + # ; > = @ + + - & + + + + % ; = . % @ + : Y @ 8 I & @ @ @ @ @ + # ; > = @ + + - & + + + + % ; = . % @ + : Y @ 8 I & ",
"9 + 6 # @ @ 9.# 9 > + @ > ,.# @ @ @ @ @ 3 @ @ @ 8 > O O > ,.+ ; 9 + 6 # @ @ 9.# 9 > + @ > ,.# @ @ @ @ @ 3 @ @ @ 8 > O O > ,.+ % ",
"> O y p o F *.2 = ; > + ` a./ @ 3 3 @ @ # ; @ @ = ; > + ` a.) @ > O y p o F *.2 = ; > + ` a./ @ 3 3 @ @ # ; @ @ = ; > + ` a.) @ ",
"` w @ ; % 7 > $ # d.0.@ 6 > ) @ @ # @ @ + @ 3 @ # d.0.@ 6 > ] + / w @ ; % 7 > $ # d.0.@ 6 > ) @ @ # @ @ + @ 3 @ # d.0.@ 6 > ) @ ",
"a a + q @ @ + O / X.F @ O % > = 2 @ @ @ 3 @ @ + / X.F @ O % > % y x + q @ @ + O / X.F @ O % > = 2 @ @ @ 3 @ @ + / X.F @ O $ > % ",
"@ 7 $ + v # 3 9 @ ;   L H @ > @ 3 @ @ @ 3 @ 3 # @ ;   L H @ > @ @ 7 $ + v # 3 9 @ ;   L H @ > @ 3 @ @ @ 3 @ 3 # @ ;   L H @ > @ ",
"@ @ > @ / H 2 ; 6 z 4 p.-.0.g.6 @ > + @ + @ 3 @ 6 y 4 p.-.0.g.9 @ @ > @ / H 2 ; 6 z 4 p.-.0.g.6 @ > + @ + @ 3 @ 6 y 4 p.-.0.f.9 ",
"q > e = 6 g = @ 8 : ; > p / 8 8 @ ; + 3 @ @ @ 6 , : ; > p / 8 9 9 > e = 6 g = @ 8 : ; > p / 8 8 @ ; + 3 @ @ @ 6 , : ; > p / 8 p ",
"# = @ + + > * + + + + % ; = X ; @ @ @ # @ @ @ ; + + + % ; = X ; # = @ + + > * + + + + % ; = X ; @ @ @ # @ @ @ ; + + + % ; = X ; ",
"@ @ @ @ 6 @ + # 9 + 6 3 + @ 0.# + ,.C + @ @ @ 3 9 + 6 3 + @ 0.# @ @ @ @ 6 @ + # 9 + 6 3 + @ 0.# + ,.C + @ @ @ 3 9 + 6 3 + @ 0.# ",
"3 3 @ @ # ; @ @ > O y p o F =.+ ,.*.{ > + # y.~ ; O y p o F *.@ 3 3 @ @ # ; @ @ > O y p o F =.+ ,.*.{ > + # y.~ ; O y p o F *.@ ",
"@ @ @ @ + @ 3 + / w @ ; % 7 > $ 8 o.> ; # H Y % / w @ ; % 7 > $ @ 2 @ @ + @ 3 + / w @ ; % 7 > $ 8 o.> ; # H Y % / w @ ; % 7 > $ ",
"3 @ @ @ 3 @ @ + p x + q @ + + = $ = ; 3 E + + O a x + q @ + + = @ @ @ @ 3 @ @ + p x + q @ + + = $ = ; 3 E + + O a x + q @ + + = ",
"3 @ @ @ 3 @ 3 # @ 7 $ @ v # 3 q ,.9 9.3 + q.# + @ 7 $ @ v # 3 q @ @ @ @ 3 @ 3 # @ 7 $ @ v # 3 q ,.9 9.3 + q.# + @ 7 $ @ v # 3 q ",
"@ > + @ + @ 3 @ @ @ > @ / H 2 ; n h 1 $ F #.# # @ @ > @ / H 2 ; + > + @ + @ 3 @ @ @ > @ / H 2 ; n h 1 $ F #.# # @ @ > @ / H 2 ; ",
"@ ; + 3 @ @ @ > 9 > e = 3 f = @ O + B Q 7 , e.~ 9 > e = 3 f = + @ ; + 3 @ @ @ > 9 > e = 3 f = @ O + B Q 7 , e.~ 9 > e = 3 f = @ ",
"@ @ @ 3 @ @ @ ; > = @ + @ > * + @ @ : Y 5 P Y $ # = @ + @ > * + @ @ @ 3 @ @ @ ; > = @ + @ > * + @ @ : Y 5 P Y $ # = @ + @ > * + "
};
