/* XPM */
static char *f699a076ebcd44fec29a0545bc19b06ajRGlB3BODnUecd3k[] = {
/* columns rows colors chars-per-pixel */
"64 64 184 2 ",
"   c None",
".  c #1A5200",
"X  c #285200",
"o  c #3A5000",
"O  c #454E00",
"+  c #465400",
"@  c #535600",
"#  c #5A5400",
"$  c #AE3F00",
"%  c #8B5500",
"&  c #955200",
"*  c #9C5401",
"=  c #AD4100",
"-  c #B64500",
";  c #BC4500",
":  c #B44800",
">  c #BD4A00",
",  c #A45501",
"<  c #AF5800",
"1  c #AD5C09",
"2  c #B15E00",
"3  c #B66105",
"4  c #BC6404",
"5  c #BA650E",
"6  c #BC6B13",
"7  c #C44700",
"8  c #CA4600",
"9  c #C44A00",
"0  c #CC4A00",
"q  c #D44700",
"w  c #DB4700",
"e  c #D34B00",
"r  c #DC4C00",
"t  c #C65200",
"y  c #CC5200",
"u  c #C05F00",
"i  c #D55400",
"p  c #DC5400",
"a  c #DB5900",
"s  c #E34700",
"d  c #E34C00",
"f  c #EA4E00",
"g  c #E35400",
"h  c #EB5400",
"j  c #E45C00",
"k  c #EB5B00",
"l  c #F15400",
"z  c #F35C00",
"x  c #F95E00",
"c  c #C46603",
"v  c #C26C0A",
"b  c #DF6300",
"n  c #DF7209",
"m  c #C66E15",
"M  c #CF7516",
"N  c #C4731C",
"B  c #D57513",
"V  c #DC7915",
"C  c #E46200",
"Z  c #EC6400",
"A  c #E46C03",
"S  c #EC6B01",
"D  c #F36400",
"F  c #FB6400",
"G  c #F36C00",
"H  c #FB6C00",
"J  c #E67201",
"K  c #EB7401",
"L  c #ED7A01",
"P  c #E57208",
"I  c #EB740B",
"U  c #E47A08",
"Y  c #ED790C",
"T  c #F37401",
"R  c #FB7301",
"E  c #F47C01",
"W  c #FA7C02",
"Q  c #F3750A",
"!  c #FD770B",
"~  c #F47B0B",
"^  c #FC7D0A",
"/  c #EB7611",
"(  c #EE7A13",
")  c #EB7B19",
"_  c #F37D12",
"`  c #F97F12",
"'  c #C67925",
"]  c #F58201",
"[  c #FB8401",
"{  c #FC8900",
"}  c #F5810B",
"|  c #FD830B",
" . c #F48A0B",
".. c #FC890B",
"X. c #FF9100",
"o. c #FF900F",
"O. c #E48314",
"+. c #E58019",
"@. c #ED831D",
"#. c #F58213",
"$. c #FB8312",
"%. c #F68E15",
"&. c #FC8917",
"*. c #F4831B",
"=. c #FA841A",
"-. c #F68C1C",
";. c #FB8A1C",
":. c #FE9211",
">. c #DD8428",
",. c #E48423",
"<. c #EA8323",
"1. c #E58A27",
"2. c #E98429",
"3. c #ED8A2B",
"4. c #F38720",
"5. c #F38A24",
"6. c #FC8D24",
"7. c #F68F2A",
"8. c #F58D2B",
"9. c #FA8E2F",
"0. c #F79122",
"q. c #FA9126",
"w. c #FD9224",
"e. c #F7942B",
"r. c #FD902D",
"t. c #FA972F",
"y. c #FB932C",
"u. c #E38D32",
"i. c #ED8E33",
"p. c #EA8E3D",
"a. c #F48F32",
"s. c #E7913E",
"d. c #E8903B",
"f. c #EE943F",
"g. c #F19332",
"h. c #F69534",
"j. c #F49234",
"k. c #FB9335",
"l. c #F69837",
"z. c #FF9E33",
"x. c #FE9B33",
"c. c #F3963C",
"v. c #FA973C",
"b. c #F7983D",
"n. c #FE9A38",
"m. c #F99B3D",
"M. c #FC9C3D",
"N. c #E68E41",
"B. c #E69141",
"V. c #EE9444",
"C. c #EC9A45",
"Z. c #E5934C",
"A. c #EB9649",
"S. c #ED994B",
"D. c #F29742",
"F. c #F59A43",
"G. c #FD9C42",
"H. c #FC9F46",
"J. c #F29C4D",
"K. c #F89C4B",
"L. c #EB9A53",
"P. c #F39F53",
"I. c #FEA544",
"U. c #FCA244",
"Y. c #F6A04D",
"T. c #FEA349",
"R. c #FDA44C",
"E. c #FAA34B",
"W. c #EEA059",
"Q. c #F5A355",
"!. c #FFA550",
"~. c #F9A553",
"^. c #FFA856",
"/. c #FEAA54",
"(. c #F4A45A",
"). c #F8A75D",
"_. c #F7AA5F",
"`. c #FAAA5B",
"'. c #F5AA64",
"]. c #F8AD63",
"[. c #F6AB69",
"{. c #F9AD68",
"}. c #FBB36D",
"|. c #FBB570",
/* pixels */
"                                                                                                                                ",
"                                                                                                                                ",
"                                                                                                                                ",
"                                                                                                                                ",
"                                                                                                                                ",
"                                                                                                                                ",
"                                                                                                                                ",
"                                                                                                                                ",
"                                                                                                                                ",
"                                                                                                                                ",
"                                                                                                                                ",
"                                                                                                                                ",
"                                                                                                                                ",
"                                                                                                                                ",
"                                                                                                                                ",
"                                                            { X.{ ] E S G                                                       ",
"                                                  ..o.:.:. .] :.%. .[ T T T K S Z j                                             ",
"                                              | &.z.z.0.O.v v C.E.-.[ T T K S S Z C C p                                         ",
"                                          [ [ #.q.1.' 6 4 2 3 u.I.&.W T K S S Z Z C j g a                                       ",
"                                      J [ [ ..0.+.c * + X @ 2 v O.E W E T S Z C C Z j p p a t                                   ",
"                                    K K E L 7.n.B u # . . + 2 4 U ~ W S T G S b C Z Z a p p i 9                                 ",
"                                  ] K E [ ~ h.m.m < % o O & c ,.n.r.` A S G S C C Z k j g p p y >                               ",
"                                [ [ J K E -.g.,.5 * * , , 1 >.!./.9.` I S G S C Z Z C k g p p y t                               ",
"                              E [ [ K E ] Y 5.V 4 5 N N m M t.R.G.=.Q ~ I A A S C C C k g p p i 0 >                             ",
"                              [ [ [ E E ] ~ ~ n V d./.T.l.8.q.w.=.~ Q ^ Q Q S G G H D k g g i 0 t 7 -                           ",
"                            J L { ] ] } ~ Y #.4.a.J.}./.U.m.n.y.$.~ ~ I Q ! ! R S R F k g g i 0 9 9 >                           ",
"                          T L E ] L ~ #.( *.5.3.D.(.]./.M.I.I.x.;.#.` ~ ` ! ^ R S R S D j h p i e 9 9 =                         ",
"                          E K E K L ~ #.=.6.t.j.F.A._.~.F.U.U.t.4.*./ I ~ ~ ^ S G H Z D k j g i 0 0 9 >                         ",
"                        A [ [ E K E ~ #.=.6.y.g.c.C.Q.Q.J.Y.F.h.7.-./ I ~ R R S G H Z Z j z g p 0 8 9 >                         ",
"                        W E E K K T T ~ #.;.8.b.f.p.J.(.).(.J.b.t.=.) #.~ T R G G H C Z Z z g p 0 8 9 > $                       ",
"                        [ E K K K W ~ ~ _ *.3.F.V.L.'.).(.S.J.F.k.) ` ^ T R R T R G S Z j k p i 0 8 7 > -                       ",
"                        [ E E L J Y ~ _ _ 8.m.K.A.W.'.L.Z.A.F.b.8.*.Y ~ K R T R R G Z Z Z k p p e 8 7 ; -                       ",
"                      E [ ] [ W J P I Y 6.k.H.K.P.{.|.[.L.N.V.h.5.#.~ T E R S G R S R Z k a g r e 0 7 ; ;                       ",
"                      [ [ E E | K } ^ Y *.r.H.F.J.P.Q.'.A.p.p.<.-.&.~ A T T S G G S H Z z p g r e 8 7 7 ;                       ",
"                      L [ L E | | | | $.;.6.v.H.~.Q.'.Q.J.D.2.<.*.#.^ K T G H R S G G D k p g r e 8 7 ; :                       ",
"                      L { K [ ] | ~ ^ ` &.q.a.c.Y.`.(.B.A.R.j.@.$.~ W T T R H G G D D j k g f p e 8 9 > :                       ",
"                      [ { E [ K T ^ ^ ~ *.y.k.F.D.J.C.s.f.a.7.*.^ ~ T R S G G H D k k j k p g r 0 8 7 ; :                       ",
"                      ] { [ E E T ^ K ~ &.w.8.h.E.~.Y.V.i.<.4.#.~ T S R G H G D D z z z g p r r 0 0 7 9 >                       ",
"                      L [ [ E [ ^ | | Y Y ;.6.y.M.M.H.M.e.@.Y ^ ! T T S D H F F k x z l h g r r e 0 7 9 :                       ",
"                        [ L L [ E E | I Y #.#.-.q.k.k.q.w.&.$.! R R R H H F F z k x k h h h g r e 8 9 > =                       ",
"                        { ] [ ] E E [ E L ~ $.#.;.6.4.*.;.&.^ ! G H G Z H D F k z z h h g f d p e 0 9 9                         ",
"                        ] [ [ [ [ E [ E T ~ I Y ;.*.) ( #.| ! H G G Z Z F F F j k z h h r d g r e 8 > :                         ",
"                        [ ] [ ] [ E [ [ W | | ~ ~ ..` ` ` Q G H H G D F F z x h l l p f d d r e 8 7 >                           ",
"                          ] ] E E W E K E E W ^ ^ ^ ^ ! W R H H H C D F z z l h l l d f e r e 0 7 ; :                           ",
"                          [ K E T T W W T S T R W ! T S S H D D F F z z k z h h h h r d d r 0 8 9 >                             ",
"                            E E K K W R G G S G R H H H H H G D x F z z l h r h h g d r r 0 8 9 > =                             ",
"                            E [ K T T R G Z S G R H H D D D F z h h z h l f r f f d d w e e 0 7 ;                               ",
"                              W S T W T G Z G G H H D D D Z j g h h h h f d d d d d w q q 0 8 7                                 ",
"                                T T R G D D D Z D D D k k z z h h h d d d s r r r w e e 8 8 7                                   ",
"                                  G R H H F F F Z k k k k h h h g r w w w w e e e e e e 8 7                                     ",
"                                    H H H F F F z k h h g h h d r r e e q q 8 0 e 0 0 0 8                                       ",
"                                        F F F z k k h g p g g d r e 0 8 8 8 8 8 8 8 7 ;                                         ",
"                                              g k h h p p p p r e 0 9 8 8 7 7 7 7 ;                                             ",
"                                                    e e i e e e 7 9 9 7 ; ; ;                                                   ",
"                                                                                                                                ",
"                                                                                                                                ",
"                                                                                                                                ",
"                                                                                                                                ",
"                                                                                                                                ",
"                                                                                                                                ",
"                                                                                                                                ",
"                                                                                                                                ",
"                                                                                                                                ",
"                                                                                                                                "
};
