/* XPM */
static char *a69b60c482504c08c1ec47f12cc5799cztXf6kMPcM0UBXCK[] = {
/* columns rows colors chars-per-pixel */
"48 64 217 2 ",
"   c None",
".  c #040505",
"X  c #060906",
"o  c #0A0B0A",
"O  c #080908",
"+  c #130E0B",
"@  c #0E100D",
"#  c #14120F",
"$  c #1F140C",
"%  c #141513",
"&  c #1D1611",
"*  c #1C1A15",
"=  c #1C1D1B",
"-  c #171A17",
";  c #241C15",
":  c #241D1A",
">  c #291E17",
",  c #26180D",
"<  c #1F211E",
"1  c #25221D",
"2  c #2C241D",
"3  c #32261D",
"4  c #32281E",
"5  c #382618",
"6  c #252624",
"7  c #2C2622",
"8  c #272925",
"9  c #2B2A25",
"0  c #2C2D2B",
"q  c #332B24",
"w  c #392E25",
"e  c #332D2A",
"r  c #342A23",
"t  c #2F302D",
"y  c #3A3127",
"u  c #32332D",
"i  c #3C342B",
"p  c #3C392E",
"a  c #303027",
"s  c #343532",
"d  c #3B3733",
"f  c #373833",
"g  c #3A3B35",
"h  c #3C3D3A",
"j  c #2F3130",
"k  c #43362B",
"l  c #46392E",
"z  c #4B3A2D",
"x  c #4B3526",
"c  c #533C2B",
"v  c #433731",
"b  c #433C34",
"n  c #4B3D34",
"m  c #423E3B",
"M  c #4B3E39",
"N  c #543F31",
"B  c #3F403B",
"V  c #3F4037",
"C  c #5B422E",
"Z  c #474136",
"A  c #4B4136",
"S  c #42423C",
"D  c #4B443B",
"F  c #4C483D",
"G  c #534234",
"H  c #53453B",
"J  c #54493E",
"K  c #5A4637",
"L  c #67472F",
"P  c #654934",
"I  c #644C3A",
"U  c #69513D",
"Y  c #77543C",
"T  c #3F4341",
"R  c #444542",
"E  c #474844",
"W  c #4B4B44",
"Q  c #4D4D4A",
"!  c #4C4641",
"~  c #544742",
"^  c #534C43",
"/  c #5A4D44",
"(  c #544E49",
")  c #4F504B",
"_  c #565045",
"`  c #5C5247",
"'  c #52524C",
"]  c #5B544B",
"[  c #5C594F",
"{  c #555552",
"}  c #565855",
"|  c #5B5B53",
" . c #5C5D5A",
".. c #5D5650",
"X. c #625145",
"o. c #63554D",
"O. c #625A4E",
"+. c #6F5A4B",
"@. c #6B5646",
"#. c #775B46",
"$. c #635C53",
"%. c #6C5C54",
"&. c #625E5A",
"*. c #6E5752",
"=. c #69564C",
"-. c #5F605B",
";. c #7D624C",
":. c #666155",
">. c #6B6455",
",. c #63625C",
"<. c #6B635B",
"1. c #6D685C",
"2. c #6F6857",
"3. c #736C5C",
"4. c #756459",
"5. c #646460",
"6. c #6C6A64",
"7. c #6B6865",
"8. c #736D63",
"9. c #766D66",
"0. c #74726C",
"q. c #7A746B",
"w. c #7B7463",
"e. c #7D7A75",
"r. c #7E7C79",
"t. c #797671",
"y. c #815B3E",
"u. c #855D41",
"i. c #8B654A",
"p. c #896446",
"a. c #966A4B",
"s. c #98724F",
"d. c #836B5D",
"f. c #876958",
"g. c #956D53",
"h. c #9C7453",
"j. c #96765A",
"k. c #A2744E",
"l. c #AC7C5A",
"z. c #A77956",
"x. c #B17D5A",
"c. c #A16B53",
"v. c #846D60",
"b. c #827A6B",
"n. c #9E7862",
"m. c #857A74",
"M. c #A67B62",
"N. c #B87A61",
"B. c #7F807B",
"V. c #AD825C",
"C. c #A5815F",
"Z. c #BB835B",
"A. c #B8895D",
"S. c #8A8075",
"D. c #86827C",
"F. c #9E8474",
"G. c #AA8367",
"H. c #BE8A63",
"J. c #BB896A",
"K. c #B78866",
"L. c #A98B76",
"P. c #B88C75",
"I. c #BC9478",
"U. c #BF9368",
"Y. c #C3875B",
"T. c #CB915D",
"R. c #C38C65",
"E. c #CA8E62",
"W. c #C08F6C",
"Q. c #CC936B",
"!. c #C59165",
"~. c #D39464",
"^. c #D69A6C",
"/. c #DC9C6D",
"(. c #D89868",
"). c #CC9A76",
"_. c #D19571",
"`. c #DC9E73",
"'. c #D39B78",
"]. c #D18F60",
"[. c #E29F74",
"{. c #DAA16D",
"}. c #DCA37C",
"|. c #DAA175",
" X c #E4A46D",
".X c #E3A373",
"XX c #EBAA75",
"oX c #EEAC7A",
"OX c #E3A77B",
"+X c #F1AD7A",
"@X c #8C8884",
"#X c #888682",
"$X c #938A84",
"%X c #95928A",
"&X c #9A958C",
"*X c #9B9B94",
"=X c #9E9E98",
"-X c #AB8F83",
";X c #AA9388",
":X c #AD9A8E",
">X c #A8A59C",
",X c #ADABA2",
"<X c #B1ADA3",
"1X c #B3B2A9",
"2X c #B9B6AC",
"3X c #BEBAB1",
"4X c #DCA684",
"5X c #D8A688",
"6X c #D5AB93",
"7X c #D6B19F",
"8X c #CBA285",
"9X c #E7AD8F",
"0X c #E3B396",
"qX c #E5AE91",
"wX c #C2BDB6",
"eX c #EBBDA2",
"rX c #C9C3B7",
/* pixels */
"                                                                                                ",
"                                                                                                ",
"                                                                                                ",
"                                                                                                ",
"                                                                                                ",
"                                                                                                ",
"                                                                                                ",
"                                                                                                ",
"                                                                                                ",
"                                                                                                ",
"                                                                                                ",
"                                              J ! W ] (                                         ",
"                                            / ~ J ~ ] ~                                         ",
"                                      H / X.n n i D ~ n n                                       ",
"                                  D D v w A G y : 7 n n G                                       ",
"                              O.O.` 2 w : d i : 7 7 2 n y G                                     ",
"                          $.K / l q q 7 # : 7 e 9 1 2 i i w G                                   ",
"                        o.] J J l 2 1 * 1 4 r 2 1 ; y 1 2 7 l G                                 ",
"                    %./ ` b H G k ; : k @.;.#.U l r y q w n l N                                 ",
"                %.%./ y q r / J y r P #.z.Z.z.y.z w ; y 2 2 w w G                               ",
"                4.o.%.%.b i A v i z u.k.Y.].Y.L k N > i r 7 y y r b                             ",
"                7.%.$./ H / M b w c i.z.].(.E.L P Y 3 q v w w y 2 w l                           ",
"                &.%.o.~ M D b v w Y k.Z.~..X^.y.c P x 2 2 w l k r i k                           ",
"                  %.] v v k k k C a.x.E.^..X/.x.C x K P 4 2 w y y y k                           ",
"                  9.~ b 2 7 w w a.H.R.E.(..X/.~.Z.u.p.k.C ; 2 2 r w 4 A A                       ",
"                  4.~ v : & : G V.).}.|.`.`.[..X|.).L.j.;.3 2 2 y y w 4 k G                     ",
"                  <.v e : 2 k +.L.I.8X5X4X}.OX}.I.f.+.j.G.C ; 2 2 3 r k k                       ",
"              H X.~ 7 : 7 * X.m.w./ J ;.G.).'.J.g.h.A.A.A.Y > ; 2 r 7 k z G                     ",
"              $.~ n 7 e 1 O U L.P.l.h.g.k.W.Q.Z.a.@.+.4.+.%.~ 2 2 ; 2 k n J                     ",
"                o.n M e 7 & @.d.v.w.X.I Y j.h.i.f.f.4.L.C.d.;.2 2 $ 2 r n H                     ",
"                <./ M M : d E F.-X-Xf.f.X.i.s.i.Z.a.l.Y.T.V.A.2 ; 2 2 2 w l                     ",
"                =.M b r 2 : h -XI.I.l.l.K.g._.g..XE.Y.~. XU.!.; * ; 3 3 k H                     ",
"                ;.~ v v 7 : 7 ;X6X!.Q.`.P.'.+XH.J.[..X X^.`.H.> & ; ; 4 l n H                   ",
"                d.%.M i r 7 + ;X7X)._.H.n.9XXXoXx.G.K.W.OXXXV.+ ; ; 2 w l k                     ",
"                  %.H y r e : -X7XP.M.z.5XqX[.oX/.^.OXoX+XXXs.+ * ; 2 i A /                     ",
"                  *./ v r e 7 v.eXqX_.Q.R.G.H.H.^..X.XoXoXXXU * 1 7 2 Z Z J ]                   ",
"                    o.M i i m b 0XqX'.K.h.i.i.i.i.z.!.XXXX{.$ 2 - * 7 Z i b ]                   ",
"                  m.4./ ~ i R s L.0XG.U M.N.x.x.l.i.k. XXXs.+ 9 % 1 Z D 7 d ]                   ",
"                q.6.:.( ..A h f W 6XW.K.J.N.c.Z.~./.T. X{.x 2 1 % v _ i i ^ f W 3.              ",
"              $XF 7...! { Q s R f v.6X4X_.E.Y.(. X X X Xk., q # a ^ b 0 S W f Z _ >.>.          ",
"            $Xq.u ,.( b Q [ 0 W 0 R v.qX4XQ.R.^..XXX^.A.c 2 1 7 D D 9 i E u h Z ^ ] :.:.(       ",
"          %Xt.7.9 ,.W f W | 0 Q 9 E 9 +.G.M.j.l.K.!.K.L 2 - 9 b ^ u u S u 0 u f Z ^ O.>.8.      ",
"          r.0.} 9 Q ' u R | u Q f s h 9 w +.X.#.V.l.C q = 0 f Q u 0 V h 9 0 s s g Z _ :.2.b.    ",
"        @XR r.R 9 f Q u S ,.Z ' W 8 R u = I G.C.p.n u 1 t f S f t g S 0 0 u s s f S F _ >.w.    ",
"      @X0.u 5.h 9 0 R s E 5.( E ) s g S u o 5 G m 8 6 g g S g u f h u 0 0 0 u 0 g S S F O.3.    ",
"    e.m.,.0 { R 8 0 R h Q 7.' g S W 0 S g * s h 1 u f f h f u f g u u 9 0 0 9 u R R g Z O.2.b.  ",
"  e.e.#XQ 0 W R 8 8 W S ' 6.W u s { d 0 u m R u h g s f f f h g 0 s s 0 0 9 9 B W h s S [ >.8.  ",
"r.t.r.D.m u h W 8 6 R E ' 6.! u h E W 0 u ' f S h f s f g h g 0 0 f s u 0 8 s E h s h S ] 3.>.b.",
"5.0.r.5.R f s R 9 6 R W } 7.S g S R ' h S g s h s g g h h g 0 9 s f s t 8 0 B S 0 f R R W 3.:.8.",
"  Q  .{ R h f R 0 6 S ' ,.&.B h R E ' } S t 9 9 0 f g h g 0 8 u g f u 0 8 f W s 0 h R f S 3.:.1.",
"  5.R h h h h R s 6 h { 7.{ S S E E R Q S f u u s s g f 0 0 0 g g s 0 0 s S R 9 s B f t E 3.<.$.",
"  q.{ R 0 8 t s f 6 s  .7.' R S Q W R R E h f u f g s 0 0 s s g f s 0 0 h W s 8 f f 6 s ' 1.1...",
"  &.W h 0 = % % j 8 0 7.,.) Q E Q W R R ) h f f f u u u g h h g f t 0 s h R 0 t s < 6 h | :.<.| ",
"6.&.,.b e 1 o . - 0 0 5.| W ' Q ) W W W [ S g s u u f g h h h g s s s g R h 0 s 1 - 0 R ,.| ,.:.",
",.1.] ~ F b a 6 < 8 0  .[ S ' ' Q W W W { S h u u u g h h h h h f f g h R t t 8 @ < h ' ,.| | <.",
"S.8.<.] b i 0 7 q 6 0 { ' E 6.<XE W W Q } h b u u f g h B h h h g h h B R 0 0 @ % u R } -.} } 1.",
"m.8.1.F i i Z Z q % = W ' Q >X3XW Q ' ' } h h 0 u f h B S S h h h h h R h 0 % X 8 h W } } [ ,.6.",
"S.q.$.D Z ^ A 0 8 - O h { =X=XwX1.8.[ ( [ S h 0 u f h S S S B S S h B R s % . 6 f B Q ' ' } ,. .",
"S.$.] ^ F D b 9 h . O 9 %X%X%X2X,XrX$.( ' R Q u u g h B S B S S R R h R 8 . = f h R W ) } ,.-. .",
"6.$.] A p p i 0 9 . O - ' ,.>X&X2X%X=X*XS 6.*XB.6.q.S B S S S S S S R R 6 = s h B R W ' -.,. .,.",
"8.:.O.] ^ D g 9 O X O # d ( >XwXe.1XS 6.f S >X#X<Xe.&XD.S S S S R R S R 0 s s h R E Q  .5.}  .{ ",
"q.<.O.` F b i 9 O o O @ b W 6.@X| <XrX0.f u ,X .1XS 3X2X} 1XS S S R R R s f % t t s E } } } '  .",
":._ Z p u a 9 - X % O @ :.>X@X' S S ] f g F %Xf >X7.1X2XS 1XS S S R R B B j = 0 h E Q { { } )  .",
"] W J F Z i 1 . % < O % S.&X$.0.S V h g | rX,.u S t.' ,X*X1XS S S R S B T 8 = f R R E ' { { '  ."
};
