/* XPM */
static char *b5c88f44982d4c6d8fc6b0a83098ebd5aGj9si6xEisTHU7o[] = {
/* columns rows colors chars-per-pixel */
"64 64 247 2 ",
"   c #020101",
".  c #0A0101",
"X  c #01020B",
"o  c #07070A",
"O  c #130704",
"+  c #050013",
"@  c #14170E",
"#  c #2B1A08",
"$  c #352F0D",
"%  c #27382E",
"&  c #4A3819",
"*  c #4A3412",
"=  c #4B3827",
"-  c #4D3423",
";  c #594419",
":  c #524B12",
">  c #766F1B",
",  c #584825",
"<  c #524C30",
"1  c #654C24",
"2  c #68552A",
"3  c #755929",
"4  c #7A5939",
"5  c #6B5134",
"6  c #786529",
"7  c #777B27",
"8  c #676E39",
"9  c #776535",
"0  c #6F6A28",
"q  c #70561D",
"w  c #524E4F",
"e  c #54514B",
"r  c #6A685D",
"t  c #776946",
"y  c #786E6B",
"u  c #8F6D1A",
"i  c #85682A",
"p  c #936A29",
"a  c #987A2B",
"s  c #876936",
"d  c #897436",
"f  c #987838",
"g  c #87762E",
"h  c #A27D3C",
"j  c #A17D27",
"k  c #856A43",
"l  c #8B7847",
"z  c #987A46",
"x  c #9B7B57",
"c  c #8D7653",
"v  c #A47C4C",
"b  c #857871",
"n  c #7D8C2C",
"m  c #6B8112",
"M  c #76807F",
"N  c #7E8E45",
"B  c #838A29",
"V  c #9A8439",
"C  c #8C9430",
"Z  c #A9853A",
"A  c #AB923E",
"S  c #B69A3C",
"D  c #96A336",
"F  c #9CAB2C",
"G  c #ACB535",
"H  c #ABB533",
"J  c #89991C",
"K  c #C79838",
"L  c #D1AA3F",
"P  c #B7CA35",
"I  c #CCD13C",
"U  c #9B8547",
"Y  c #9A8759",
"T  c #969659",
"R  c #8E8E4B",
"E  c #A58344",
"W  c #A38A4B",
"Q  c #AA8947",
"!  c #B48B48",
"~  c #A89647",
"^  c #B69649",
"/  c #A48B53",
"(  c #AA9359",
")  c #BD9952",
"_  c #B79758",
"`  c #B18F52",
"'  c #98A444",
"]  c #BCA456",
"[  c #B4AE4C",
"{  c #908C71",
"}  c #B28963",
"|  c #B79B65",
" . c #AE966D",
".. c #AFAD6B",
"X. c #9CA56E",
"o. c #C69B49",
"O. c #C49A59",
"+. c #D29B40",
"@. c #C8A648",
"#. c #D6A649",
"$. c #C7B348",
"%. c #D8B447",
"&. c #CCAC54",
"*. c #C7A75A",
"=. c #D6AE57",
"-. c #DCAA55",
";. c #D6A657",
":. c #CBB556",
">. c #D4BD53",
",. c #D3B35C",
"<. c #DBB45D",
"1. c #DCBC5A",
"2. c #DBB755",
"3. c #E6AC59",
"4. c #EABC5D",
"5. c #E5B859",
"6. c #E8AE50",
"7. c #C49864",
"8. c #CBA463",
"9. c #C8A967",
"0. c #D8AC67",
"q. c #CDB565",
"w. c #D5B463",
"e. c #DCB564",
"r. c #DCBB63",
"t. c #D3B46C",
"y. c #DAB56C",
"u. c #DDBA6D",
"i. c #D3BA67",
"p. c #C4A772",
"a. c #D8BA74",
"s. c #CEAD77",
"d. c #E3BB64",
"f. c #ECBE64",
"g. c #E3BC6B",
"h. c #EABD6C",
"j. c #E2B568",
"k. c #E7BB76",
"l. c #EAB16E",
"z. c #B8C747",
"x. c #BACE52",
"c. c #C8C748",
"v. c #D0CC4A",
"b. c #CAD645",
"n. c #D5D94A",
"m. c #D7C655",
"M. c #D2D055",
"N. c #EAC55D",
"B. c #E5C559",
"V. c #F5C55C",
"C. c #DCC467",
"Z. c #D7C275",
"A. c #CEC276",
"S. c #EBC364",
"D. c #E4C16C",
"F. c #ECC36B",
"G. c #E7C769",
"H. c #F3C769",
"J. c #E5C272",
"K. c #E8C877",
"L. c #F4C474",
"P. c #F3CB73",
"I. c #F6CA78",
"U. c #F8D378",
"Y. c #EED57A",
"T. c #D2E04B",
"R. c #8E7B81",
"E. c #8A8A87",
"W. c #978A96",
"Q. c #999D96",
"!. c #988C81",
"~. c #A59690",
"^. c #AFA992",
"/. c #9EA9A3",
"(. c #A8A9AA",
"). c #B5AAB2",
"_. c #B9B8B7",
"`. c #B6B1AB",
"'. c #9CA497",
"]. c #D1B982",
"[. c #C7B9AF",
"{. c #E2B483",
"}. c #BFC2AF",
"|. c #AFC98C",
" X c #E9C685",
".X c #F7C986",
"XX c #ECD387",
"oX c #F9D081",
"OX c #B9B7C4",
"+X c #C5BDC4",
"@X c #C9C8C7",
"#X c #D6D9CA",
"$X c #CAC6D4",
"%X c #D3CBD7",
"&X c #CED2D6",
"*X c #D5D5D3",
"=X c #DBDDD5",
"-X c #DDDDDD",
";X c #D8D6D6",
":X c #D6CCCA",
">X c #E2DBDD",
",X c #DFE1D8",
"<X c #E2E3DD",
"1X c #E4EADC",
"2X c #EAEDDD",
"3X c #E4E7D8",
"4X c #F3EBDF",
"5X c #EDF2D8",
"6X c #DEDDE3",
"7X c #D9D8E8",
"8X c #E2DDE3",
"9X c #E3DEE8",
"0X c #DDE3E3",
"qX c #DDE0E9",
"wX c #DAE1F1",
"eX c #E5E5E5",
"rX c #EAE4E4",
"tX c #E5EBE5",
"yX c #EBECE5",
"uX c #E4E4EB",
"iX c #ECE5EB",
"pX c #E4EAE9",
"aX c #ECECEC",
"sX c #F3EDE9",
"dX c #EDF3E5",
"fX c #ECF2EB",
"gX c #E5F1E5",
"hX c #F2F3EC",
"jX c #F6F7EA",
"kX c #E5E3F1",
"lX c #EAE4F3",
"zX c #ECECF2",
"xX c #EEEDFA",
"cX c #E5ECF4",
"vX c #F2ECF2",
"bX c #F3EDFC",
"nX c #FAEDFF",
"mX c #EDF2F3",
"MX c #EDF3FD",
"NX c #F3F3F3",
"BX c #F8F4F3",
"VX c #F6FAF4",
"CX c #FCFDF4",
"ZX c #F4F4FB",
"AX c #FAF5FD",
"SX c #F5FAFC",
"DX c #FCFCFC",
/* pixels */
"DXeXNXNXeXDX-XDXaXeXNX-XDXeXNXNXeXDX-XVXNXaXNX-XDXaXNXNX-XCX<XNXaXaXNXeXDXeXNXNXeXDX-XVXNXeXNX-XDXeXNXNXeXDX-XDXaXeXNX-XDXeXNXNX",
"eXNXaXaXNXeXVXeXNXvXaXVXeXNXaXaXVXeXVXaXaXaXeXDXuXhXyXaXAX9XAXaXNXaXaXVXeXNXNXaXDXeXNXaXNXNXaXVXeXNXaXaXNXeXVXeXNXvXaXVXeXNXaXaX",
"NXaXaXaXNXaXNXNXaXNXaXaXNXNXaXNXaXaXNXeXNXNXNXeXNXNXNXtXaXNXzXNXaXaXaXaXNXaXaXaXaXaXNXaXaXNXNXaXNXaXaXaXNXaXNXNXaXNXaXaXNXNXaXNX",
"aXNXaXNXaXNXaXaXNXaXNXaXaXaXNXaXNXNXaXNXaXaXaXNXZXaXhXaXNXaXaXjXNXeXNXNXaXaXNXaXNXNXaXNXaXaXaXNXaXNXaXNXaXNXaXaXNXaXNXaXaXaXNXaX",
"aXNXNXaXNXeXVXaXNXNXaXNXeXNXaXaXNXeXVXaXNXaXaXNX2XNXxXZXaX1XNXuXNXaXaXNXtXmXaXNXNXeXVXaXNXaXaXNXaXNXNXaXNXeXVXaXNXNXaXNXeXNXaXaX",
"VXeXNXzXeXDX-XDXaXaXVX-XDXeXNXNXeXDX-XNXNXaXDX-XCX,XAXxXuXDX-XhXeXNXNX-XDXeXaXaX-XDX-XVXaXpXVXeXVXeXNXzXeXDX-XDXaXaXVX-XDXeXNXNX",
"eXNXaXaXDX-XDX-XNXNXaXDX-XNXaXaXVX-XDXeXNXaXeXDXwXNXdX,X(.r 8 n _.NXeXDX-XVXaXaXDX-XDXeXNXNXuXVXeXNXaXaXDX-XDX-XNXNXaXDX-XNXaXaX",
"VXaXvXNXeXVX-XVXaXaXNXeXVXaXNXNXeXDX-XVXaXaXNXeXVXlX_.< $ x.J x.E.aXNXeXNXaXaXNXeXDX-XVXaXaXNXeXVXaXvXNXeXVX-XVXaXaXNXeXVXaXNXNX",
"aXNXaXNXNXaXNXvXaXNXaXNXaXNXaXNXdXaXjXkXsXhX2XZXuXy m P z.I G b.T aXzXdXeX%X_.|.(.,XAXhXNXeXZX5XaXNXaXNXNXaXNXvXaXNXaXNXaXNXaXNX",
"aXNXNXaXNXaXNXaXvXaXaXNXaXNXaXaXNXaXhXbXNXlXmXxX*X8 b.T.M.c.[ n.F =X$X{ ' P z.$ B X.=XaXaXNXaXZXaXNXNXaXNXaXNXaXvXaXaXNXaXNXaXaX",
"VXaXaXNXaXNXeXVXaXaXNXeXVXaXaXNXeXAX,XNXtXlXAXuX_.B n.v.:.:.a.m.G E.n I n.b.: ~ I I D (.7X&X#XuXVXaXaXNXaXNXeXVXaXaXNXeXVXaXaXNX",
"-XVXeXaXNX-XDX-XaXNXeXDX-XVXaXaXDX6XDX,XjXmXeXCXQ.H v.>.&.,.9.w.m.7 n.m.,.A.- %.i.U F n T N ..jX-XVXeXaXNX-XDX-XaXNXeXDX-XVXaXaX",
"DXeXVXNXeXDX-XDXaXaXVX-XDXeXNXaXeXDX*XCXaX@X*X=XM H m.i.e.<.*.r.e.c.:.0.5.] d <.,.>.c.P C X.=X6XDXeXVXNXeXDX-XDXaXaXVX-XDXeXNXaX",
"eXNXaXaXNXaXNXeXNXaXaXVXeXNXaXaXNX1XDXuXxXy w bXw c.m.,.u.i.*.1.k.2.&.5.5.` | 0.=.>.v.M.< r aXVXeXNXaXaXNXaXNXeXNXaXaXVXeXNXaXaX",
"NXaXaXNXaXNXaXNXaXaXNXaXNXaXaXaXNX2XuXAX@X2 8 y $ M.>.r.u.,.O.<.r.e.e.h.8._ a.e.<.i.a.[ H N xXpXNXaXaXNXaXNXaXNXaXaXNXaXNXaXaXaX",
"aXaXNXaXaXNXaXaXNXaXNXaXNXaXNXaXlXjXbXaXe z.J T 0 c.1.j.r.1.*.u.i.r.k.2.m.] 1.1.j.u.$.m.n.7 3XfXaXaXNXaXaXNXaXaXNXaXNXaXNXaXNXaX",
"uXNXNXaXVX-XVXaXNXNXaXNXeXNXaXaXjXkXjX@XB n.A m.^ i.i.u.u.u.*.y.j.D.d.d.h.k.g.D.u.2.e.r.m.> 7XCXeXaXvXaXVX-XVXaXNXNXaXNXeXNXaXaX",
"DXeXaXNXeXDX-XDXaXaXNX-XDXeXNXNX<XDX*X(.z.M.[ >.>.r.e.d.5.1.r.D.k.J.D.d.g.d.D.1.C.u.r.,.[ 7 $X=XDXeXNXNXeXDX;XVXaXaXNX-XDXeXNXNX",
"-XVXaXNXNX-XDXeXNXNXeXDX-XNXaXaXDX;XDX(.b.M.m.w.w.g.d.d.d.D.F.g.S.d.d.D.F.S.g.h.B. Xr.*.V ~ $XDX-XNXaXNXNX-XDXeXNXNXeXDX-XNXaXaX",
"NXaXaXNXeXVXeXNXaXaXNXeXNXaXNXNXxXCXaX@XG M.%.g.k.d.4.4.L.g.h.P.N.H.f.H.4.S.d.k.5.k.<.,.i.d iX0XNXaXaXNXuXVXeXNXaXaXNXeXNXaXNXNX",
"NXaXaXaXNXaXNXNXaXNXaXaXaXNXaXNXaXhXzX8XR m.d.<.d.d.F.D.S.P.H.f.L.h.L.L.F.G.D.g.f.5.L.e.S  .eXNXNXNXaXaXNXaXNXaXaXNXaXaXaXNXaXNX",
"eXNXNXNXeXaXaXaXNXaXaXNXuXaXNXaXaXyXZXaX~.q.&.F.q.d k / t.S.P.h.F.L.L.h.t.U 3 l p.g.-.<.:.^.aXmX-XNXNXNXaXNXNXaXNXaXaXNXpXaXNXaX",
"VXaXaXaXaXVXeXNXaXaXaXeXVXaXaXNXaXDXeXVX9XY C.8.& e O . # | K.L.U.N.U.a.& r e .   c h.-.] [.DX8XDXaXaXNXaXNXeXNXaXaXaXeXVXaXaXNX",
"-XVXeXNXVX-XDXeXNXVXeXDX-XVXeXaXAX-XDX,XAX!.>.z w ZX@X    , K.V.K.U.D./ . MXwX  o . <.#.U yXeXDX-XVXeXNXDX-XDXeXNXVXeXDX-XVXeXaX",
"DXeXVXaXeXDX-XDXaXeXVX-XDXeXNXaXeXDX-XAXpX).8.0 @ @XW.  X   C..XoXS.P.9   (.Q.  X   &.#.{ gXDX=XDXeXVXaXeXDX-XDXaXeXVX-XDXeXNXaX",
"eXNXaXaXNXeXNXeXNXaXaXNXeXNXNXaXmXiXNXiXfXiX7.d     o   X . G.L.F.U.I.k   X       O =.E @XfXlXVXeXNXaXaXNXeXNXeXNXaXaXNXeXNXNXaX",
"NXaXaXvXNXaXaXNXaXNXaXaXNXaXaXNXaXvXaXzXmXiX| W o +   Q.  , U.P.U.P..X| O     Q.. k =.4 eXaXvXyXNXaXaXaXNXaXaXNXaXNXaXaXNXaXaXNX",
"aXNXaXNXeXNXaXaXNXaXNXaXaXaXNXaXmXzXaXNXzXsX .y.t .     & w.F.P.H.P.H.K.U # O . 9 0.o.b yXvXzXyXaXNXaXNXeXNXaXaXNXaXNXaXaXaXNXaX",
"aXNXaXaXNXpXVXaXvXzXaXNXeXNXaXaXNXeXDXeXmXBX^.h.2.s.V / K.H.U.P. X.XL.H.S.k.t.q.C.4.a (.fXvXzXBXaXNXaXaXNXpXVXaXvXzXaXNXeXNXaXaX",
"VXeXNXNXeXDX-XDXvXaXVX-XDXeXNXaXeXDX;XCXaX<X^.-.V.h.N.F.L.H.I.H.S.H.P.f.H.H.f.f.2.K i @XaXaXAX=XVXeXNXNXeXDX-XDXzXaXVX-XDXeXNXaX",
"eXNXaXaXDX-XDX-XNXNXeXDX-XVXaXaXVX-XDXeXZXhX^.5.l.L.H.F.h.I.h.S.S.f.F.L.L.4.V.5.#.#.9 _.NXhX6XDXeXNXaXaXDX-XDX-XNXNXeXDX-XVXaXaX",
"VXaXaXNXaXVXeXVXaXaXNXeXNXaXNXNXaXCX8XfXzXfX@X6.<.5.g.h.S.F.j.L.h.P.e.K.F.N.5.;.K o.< 4XZXaXSX<XVXaXaXNXaXVXeXVXaXaXNXeXNXaXNXNX",
"aXNXaXNXNXaXNXaXaXNXaXNXaXNXaXNXfXuXZXaXhXsX4X .&.6.3.<.C.D.@.s U i ) 5.4.-.-.#.S d W.2XxXNXkXNXaXNXaXNXNXaXNXaXaXNXaXNXaXNXaXNX",
"aXNXNXaXNXaXNXpXaXaXaXNXaXNXaXaXsXAXsXaX&X0XuXrX{ _ @.L %.-.4.l.;.j.5.#.3.#.o.! 3 { vX2XNXtXNXdXaXNXNXaXNXaXNXeXaXaXaXNXaXNXaXaX",
"VXaXaXNXaXNXeXVXaXaXNXeXVXaXaXNXiXAX>XjX^.X.=X2XsXW.a K O.#.#.#.%.o.-.#.o.Z i 5 [.nX6XVXdXtXVX3XVXaXaXNXaXNXeXVXaXaXNXeXVXaXaXNX",
"-XVXeXaXNX-XDX-XaXNXeXDX-XVXaXaXVX1XDXuX`.'.T [.'.c 2 1 3 h A ! Q Q j u q * t e vX}.`.pXhXNXkXDX-XVXeXaXNX-XDX-XaXNXeXDX-XVXaXaX",
"DXeXNXNXeXDX-XDXaXaXVX-XDXeXNXaX0XDX*XAX^.[ ^.Y Y 4 S i - > 1       , f Z p o.f E.' @XzXaXaXAX6XDXeXNXNXeXDX-XDXaXaXVX-XDXeXNXaX",
"eXNXaXaXNXaXNXeXNXaXaXVXeXNXaXaXBXkXjXzX&X$XyXiXy 9.e.q ! 3.-.z - 3 g.2.*.s 3 ~ < F -XzXVXhX<XCXeXNXaXaXNXaXNXeXNXaXaXVXeXNXaXaX",
"NXaXaXNXaXNXaXNXaXaXNXaXNXaXaXaXbXvXvXyXjXdX6Xr s.5.@.i 8.4.L. XQ r.U.h.2.h 4 9 * : $XmXaXaXjXyXNXaXaXNXaXNXaXNXaXaXNXaXNXaXaXaX",
"NXaXNXaXaXNXaXNXNXaXNXaXNXaXNXaX1XSX1XNXxXuXy Y 7.$.s s @.B.U.K.x C.P.L.5.j 3 U Z. .+XaXfXzXNXlXNXaXNXaXaXNXaXNXNXaXNXaXNXaXNXaX",
"eXNXaXaXVX-XDXeXNXNXaXNXeXNXaXaXCX8XDXpXfX&X. t 7.0 d 3 ^ S.C..XY #.B.d.;./ s &.k.W w C { %XaXVXeXaXaXaXVXeXVXeXNXNXaXNXeXNXaXaX",
"VXuXNXNXeXDX-XDXaXaXVX-XDXeXNXNX=XDX+X=X<X{ A.Q j.V 6 3 E ^ A p s O.^ ! p 3 3 E <.C.T D { eXjX<XDXeXNXNXeXDX-XDXaXaXVX-XDXeXNXNX",
"eXVXuXaXVX-XDX-XzXNXeXDX-XVXaXzXSX-X`.' r ( | <.;.O.1 f _ f t.s.*.) ^ W &.a 1 ^ x z k : 6XSXuXDXeXVXaXaXVX-XDXeXaXNXeXDX-XVXaXvX",
"NXaXaXNXaXVXeXNXaXaXNXeXNXaXaXvXcXVX..B Y W 4 d.-.O.# i v ( D.G. Xa.f ( ,.O.$ Q s 9.9.U @XcXzXlXNXaXaXNXeXVXeXNXzXaXNXeXNXaXaXaX",
"NXaXaXaXNXaXNXNXaXNXaXaXaXNXaXNXzXyX`.].Z.l ^ ` g.v = S *.6 J.t.) ~ O.( r.O.& E U r.8.Y.{ 0XdXBXNXaXaXaXNXaXNXNXaXNXaXaXaXNXaXNX",
"aXNXNXaXaXNXaXaXNXaXaXNXaXaXNXaXfXvX^.XXK.z i.x @.3 $ u E W *.t.J.J.q.*.! a 6 1 z s.{.Y. .;X2XhXeXNXNXNXaXNXNXaXNXaXaXNXaXaXNXaX",
"VXaXNXNXaXNXeXDXaXNXNXeXNXaXaXNXaX%X[ XXP.} t._ W # ; ] y.k.K.x Q O.( 9.O.` g . ^ s.e.G.| ^.NXuXVXaXNXNXaXNXeXDXaXNXNXeXNXaXaXNX",
"-XNXeXNXVX-XDXeXaXNXeXDX-XVXeXaXVX!.p.K.d.! e.L 2   2 f ) k.C.` a.=.l f 0.a V + Z } <.d.E  .rXDX-XVXeXNXDX-XDX-XaXNXeXDX-XVXeXaX",
"DXeXNXNXeXDX-XDXaXeXNX-XDXeXNXNX0X!.l 9._ O.0.o.,   2 Z h } f s.C.d./ 9 f d Q   i Q e.=.U ^.ZX<XDXeXNXNXeXDX-XDXaXeXNX-XDXeXNXNX",
"eXNXaXaXNXeXVXeXNXvXaXVXeXNXaXaXZXxX).- ` @.A E $ E.2 *.g.` K.a 9 v p.U Z.z 1   , U 9.p.= #XaXZXeXNXaXaXNXeXVXeXNXvXaXVXeXNXaXaX",
"NXaXaXaXNXaXNXNXaXNXaXaXNXNXaXNXmXkXZX_., 9 , 5 { 6X$ o.r.9.G.*.  _ K.9.J.! V % . t & b %XyXfXvXNXaXaXaXNXaXNXNXaXNXaXaXNXNXaXNX",
"aXNXaXNXaXNXaXaXNXaXNXaXaXaXNXaXfXhX1XVX-X6X-X:XrX$Xc Z J._ XX| o 5 G.G.1.@.i /.*X_.rXhXlXMXVXeXaXNXaXNXaXNXaXaXNXaXNXaXaXaXNXaX",
"aXNXNXaXNXeXVXaXNXNXaXNXeXNXaXaXBX8XVXuXmXmXeXDXzXOX2 Z ) / *.z   ( ; / V f p W.VXuXAX2XdXxXuXCXaXNXNXaXNXeXVXaXNXNXaXNXeXNXaXaX",
"VXeXNXzXeXDX-XDXaXaXVX-XDXeXNXNXeXDXuXZXaXaXCX=XDXQ.d ;.*.` K.{.  } K.| t.@.O.y 9XDX,XjX2XhXVX>XVXeXNXzXeXDX-XDXaXaXVX-XDXeXNXNX",
"eXNXaXaXDX-XDX-XNXNXaXDX-XNXaXaXVX-XDXeXNXaXpXDX,X{ W ;.y.XXY.a.  ` K.f K.y.K 3 AX*XCXrXaXBXtXAXeXNXaXaXDX-XDX-XNXNXaXDX-XNXaXaX",
"VXaXvXNXeXVX-XVXaXaXNXeXVXaXNXNXtXAXuXVXyXyXNX6XAXr U o.8._ C.*.X d N.` O.e.-.9 @XDXeXZXvXpXVX0XVXaXvXNXeXVX-XVXaXaXNXeXVXaXNXNX",
"aXNXaXNXNXaXNXvXaXNXaXNXaXNXaXNXNXaXNXaXaXNXaXaXaX@X= , Y s 9.f R.; 9.f h A U - -XrXNXNXaXNXzXaXaXNXaXNXNXaXNXvXaXNXaXNXaXNXaXNX",
"aXNXNXaXNXaXNXaXvXaXaXNXaXNXaXaXNXaXaXaXaXNXaXNXmXzXaX*XQ.).W.%XcX*X'.+X).`.:X;XNXaXNXaXNXaXNXNXaXNXNXaXNXaXNXaXvXaXaXNXaXNXaXaX",
"VXaXaXNXaXNXeXVXaXaXNXeXVXaXaXNXeXNXaXNXaXaXNXeXVXtXfXfXfXSX0XSXdXfXNX6XDXzXaXfXeXVXtXNXaXaXNXeXVXaXaXNXaXNXeXVXaXaXNXeXVXaXaXNX",
"-XVXeXaXNX-XDX-XaXNXeXDX-XVXaXaXDX-XDXeXNXNXeXDX;XDXNXaXhX*XDX,XsXiXiXDX;XAXbXvXDX-XVXeXNXNXeXDX-XVXeXaXNX-XDX-XaXNXeXDX-XVXaXaX",
"DXeXVXNXeXDX-XDXaXaXVX-XDXeXNXaX-XDX-XVXaXaXNX-XDXrXrXNXaXAXiXAXvXbXxX3XCXuXxXZX-XDX-XVXaXeXVX-XDXeXVXNXeXDX-XDXaXaXVX-XDXeXNXaX",
"eXNXaXaXNXaXNXeXNXaXaXVXeXNXaXaXVXeXNXaXNXaXaXVX3XdXVXfXVXeXVXrXdXNXmXdX3XVXaXdXDXeXVXaXNXaXaXVXeXNXaXaXNXaXNXeXNXaXaXVXeXNXaXaX",
"NXaXaXNXaXNXaXNXaXaXNXaXNXaXaXaXaXNXNXaXNXaXNXaXZXzXaXzXpXSXaXNXaXvXzXNXZXzXvXsXeXNXaXaXaXNXNXaXNXaXaXNXaXNXaXNXaXaXNXaXNXaXaXaX",
"aXaXNXaXaXNXaXaXNXaXNXaXNXaXNXaXaXNXaXNXaXaXNXaXBXaXNXzXNXaXaXNXfXaXNXaXNXzXNXzXaXNXvXaXNXaXNXaXaXaXNXaXaXNXaXaXNXaXNXaXNXaXNXaX"
};
