/* XPM */
static char *_809aab16e144c26f24ace501a528e86SLc4PaPVVdzexIG1[] = {
/* columns rows colors chars-per-pixel */
"64 64 77 1 ",
"  c #6B4E2B",
". c #6D502D",
"X c #71522E",
"o c #765631",
"O c #785731",
"+ c #755833",
"@ c #7B5933",
"# c #7E5F38",
"$ c #7F6038",
"% c #825E36",
"& c #836037",
"* c #85633B",
"= c #89663B",
"- c #8D693E",
"; c #976D3F",
": c #856741",
"> c #876942",
", c #8D6B41",
"< c #926E42",
"1 c #996F41",
"2 c #967145",
"3 c #997345",
"4 c #977449",
"5 c #99764A",
"6 c #9D794B",
"7 c #9E7D51",
"8 c #A27646",
"9 c #A47847",
"0 c #A27A4A",
"q c #A87C4A",
"w c #A07E52",
"e c #A7804D",
"r c #AD834F",
"t c #B2834F",
"y c #A18154",
"u c #AB8553",
"i c #AE8855",
"p c #AC8758",
"a c #AD8859",
"s c #B48651",
"d c #B58852",
"f c #B28957",
"g c #B48A54",
"h c #BB8F57",
"j c #BC8F57",
"k c #B38A58",
"l c #B48B59",
"z c #B58D5B",
"x c #B68E5C",
"c c #BC8F58",
"v c #BC9057",
"b c #B7905E",
"n c #BC9058",
"m c #BD9058",
"M c #BE935B",
"N c #BA925F",
"B c #B79160",
"V c #BB9360",
"C c #BB9462",
"Z c #BC9462",
"A c #BB9564",
"S c #BE9764",
"D c #BF9865",
"F c #BE9968",
"G c #C0955D",
"H c #C09762",
"J c #C29762",
"K c #C09764",
"L c #C29A67",
"P c #C49B67",
"I c #C69C67",
"U c #C39B68",
"Y c #C69D68",
"T c #C89E6A",
"R c #C89F6B",
"E c #C8A06B",
"W c #C9A06C",
/* pixels */
"*7wyyyyy77wyw7wyyyyyyyyyyyyyyyyyyyyyy7777yyyyyy7777wyy7777777wy:",
"5YDUYZLWWYYWWYYYTWEWWWWWWWWWWWWWWETTYYYWWWTTTTWWTYIYTTTTTLZYLST6",
"5Z+4V+4IYYPPYYYPPPPPPPPPPPLPPPPPLLPPPIYYPPPPPPPPYYYPLPPPP4+V4+N5",
"6L5pZ5pYYILPYTYYYYYYYYYYYYPPPIPIPPYYYYPPIYPIPYYIPPYYYYYYYp5Lp5Z5",
"6YSLPZLIPPYYYPPPPPPPPPPPPPPPPPPPPPIYYYPPYYPYYIYYLPYYYIPPPZVLZNP5",
"5N+5Z+4IYYYPPPPIYYYYYYYYYYPPPIYIIPLPPYYYPIYPPYIPYYYPPPPYY5+Z5+V6",
"6L6aL6aTYPPYYTYYYYIPIPPPPPPYPIYYTTYYPPIYYYYIYPYYYPPIYYYYYp4Zp5K5",
",klkklfffkzzzkkzklllzzzzzzlzkfffkzzzzkffzzzzzzlkffklkkfffffkllf,",
"#<<,<<<,&-----O XOOOOOO X@OOOOO XOOOOOO XOOOOOO XO,-=--&,,<<<2<@",
"7YLHLHLx-rstsg0.%111311O%311111O%133111O%111111o+qgrsts2BHZLHLL2",
"wTPPYPYx-smjmmm02ttssss-2stssss-2ttstss-2ststst,yGhhhjm6SPLYPYT2",
"7YLYYPYx-smjmhmmu0sssss-3ssssss-3ssssss-3sssss0pGjjhhhj6APPYLPY4",
"7PPYYLIx-rmmmmhmmu0ssss-3ssssss-3stssss-3ssss0pGjhjmjhm6APPYPLY5",
"6IYTYPPx=rjhmmmhmmu0sss-3sssssd-3ssssss-3sss0pGmhhjmhmm5APPYPPT5",
"6TYYYYPx+3mjhmmjmmmu0ss-3ssssss-3ssssss-3ss0pGmhjhhhmj0#SPIYLYT5",
"7YLPPYYzO@6mmmjjjhmmu0s-3ssssss-3ssssss-3s0pGjhjhhhhh0%*CPYYPYT4",
"6PPYYPYxO=%6mmhmjhhmmu0-3ssssss-3ssssss-20pGhhmmhhjj0%32VPYYPYY2",
"6YYPPYPN@18%6mjjmmmmmmu$3stssss-3dsssss-=pmhhmmmmjm0&3t3VIYPPYP2",
"6TYPIYPx@1t9%6mjjmmmmmm03ssssss-3dsssss<yGjjmhjmmm0%3ss3VYYPPYP2",
"6TPPYYIzO1ss9%6mjhhjjhjmu0sssss-3sssss0pGmjjhjhjm0&3tss3CTYLPYP2",
"6YIPYYIzO1sss9%6mmmhjmjjmu0ssss-3ssss0pGvhhjmjjm0%3ssst3SYPLYIP4",
"6YYPPYIzO1ssss9o3mmjhmmmvmu0sss-3sss0pGmhhmjhjm6@3tssss3CPLPYPP4",
"7PPYYYIzO1sssss& 0mhjmmjmhmu0ss-3ss0pGmhmmmhjm0 *tsssss3VPYYTPP4",
"7YLPYPPxO1tssss-=%6mjmjhmhhmu0s-3s0pGmmmjmhjm0&O2ssssss3VYYYYYP2",
"7YYPLLPN@3sssss-39%6mmjhmmhmmu0-30pmhhmhmhhj0&6-3sstsss2ATYPPYY2",
"7IYYYYPxO1sssss-3s9%6mhhmmmmhmu#-imhhhhmjhm0%3s-3ssssss3SYPLLPY5",
"7YPPYYYzO1sssss-3ss9%6mhjmhmmmm04mmhjmmmmm0%3ts-3ssssss3APLLLLP5",
"6YYPPPTxO1sssss-3sss9%6mhjmhmjhmurmjmjmmm0%3tss-3ssssss3VPPPPPP2",
"7YPYYLINO1tssss-3ssss9%6mvmhjjjmmurmmhmm0%3tssd-3ssssss3VYYTYYP2",
"7TIPYYPxO1sssss-3sssss9o3mjjhmmmmmurhhm6@3sssss-3ssssss2VTYIYTY2",
"7YPYPYYzO1sssss-2ssssss& 0mjhhjmhmmuec0 *ssssss-3ssssss2CILLPYT4",
"7YPYIYYzO1sssss-3ssssss-=%6mjhhjmmmmu<%O2ssssss-3ssssst3CPLLLPY5",
"7YPYPPYzO3sssss-3ssssss-232emjjmmmmhm0<=3ssssss-3ssssss3VPYYYPP4",
"7TYYLYYzO3sssss-3ssssss-=imqqmjmmmjmhmu#3ssssss-3ssssss2VYYTTYP4",
"7YILPYYzO1tssss-3ssssss<yGjcqqmmjhjmhhmq3stssss-3ssssss2VTYYIYP2",
"6PPIYYIzO1sssss-2sssss0pGhhjmqqmmjjmmhmmu0ssssd-3stssss2CTPPPYY2",
"6YYYYPIxO1tssss-3stss0pGmhjmhmqemmjmmmmmmu0ssss-3ssssst3STPIYIY2",
"7TYPLPYbO1tssss-3sss0pGmmjhhhjh-6mmjmmmmjmu0sss-3ssssss3SYPPPPY4",
"7YLLPYYxO1tssss-3ss0pGjhjjmhhj0 X0mjjmhmhmmu0ss-3ssssss3SYPPPPY4",
"6PPYYPYN@1tssss-3s0pGmjmhjhjm0&O=&0mhmjjjmmmu0s-3ssssss2CYPYYPY4",
"6IYYPITNO1tsssd-30pGmhhjhhmm0%3-3q&0mvmmjjhjmu0-3ssssss2CYPPYPY4",
"6YTPPYYxO1sssss-=pGjhhhjjhm0%3t-3s9&6jhmmjhjjmu$3ssssss3VYYPPPY4",
"7WYPYYIzO1sssss<yGhhhjmjjh0%3ss-3ss9%6mjmmjmjjm03tsssss3VIYPLYY4",
"7YLPYIINO3ssss0pGmjjhhmmm0&3tss-3sss9%6mmmhjjmmmu0sssss3CPYYYYY4",
"7YLYYPYNO3sss0pGmmmhhhmm0%6ssss-3ssss9%6mjmhjjmmmu0ssss3APYTTYI2",
"7PPYPPTNO1ss0pGjhmmmhjm6@6sssss-3dssss9o3jmjmhmjjmu0sss2CPPYYYP2",
"7PYYPPTxO1t0umhjjhmhhm0 =ssssss-3ssssss& 6jjjjjmjmmu0ss2VYLPPPP2",
"7PYYLYYzO;6pmhjjhjhhj0%O3sssssd-3sssssd-=%6mjjjjjjmmu0s2VYPLLLY4",
"7PYYLYYzO=pGhjjhjjmm0%6-3ssssss-3stssss-39%6mjmjmjhhmu02VYYLPYY2",
"7PYPLYYzO0Gjmjhmjjm6%3s-3ssssss-3stssss-3s9%6mmmjmhmmmu>VPYYYYP2",
"7PYILYYz,gmhmjmmhm0%3ss-3ssssss-3ssssss-3ss9%6mmjjmmmmm5CPPYYPP2",
"7PYYPYTx-rjjjhmjh0%3tss-3ssssss-3ssssss-3sss9%6jjmjhhmj6APLLLLY4",
"7PYYLPTN-rjmhhjv0%3tsss-3ssssss-3ssssss-3ssss9%6vmmjmmm6ATYPLYY2",
"6PYYPLYN-rhhjmm6@3tssss-3ssssss-3ssssss-3sssss9o3mmhmmm5VYYYYYP4",
"6PPTPPYN-tmjjj0 =ssssss-3ssssss-3ssssss-3ssssss& 0mmmjm6VPYTYPI5",
">wwywww6*26663#+>333333*-333333*-333333*-333333*##56666,6wwyw6w*",
"4DFFFUFDSSFFFSSDDFFDSFDSSDFFDSSSDDDDDDSSSSFDSSDFFDSSFFSSSFUSSSS4",
"5Z5aL6aTYPPIYYYPPPPPYYIPYTYYPPYYTYYYYTTYPPYTYPPPPPYYYYPPTa5Zp4L6",
"5N+4N+4TYYIPLPYYYYYYYPLIYYPLLYTYYLLLPYYYYLPYYYYYYYYYPPPYT4+Z5+V6",
"6YZZLNZPPYYYYYPPPIPPLLLYTYLLLYTYPPYILPYTYLLYTTYYPPPPPYYTYZVYLNP6",
"5L6aL5pPLLPYYYYYYYPPLLLIYYYPLIYYPPYILIYYYLPYYYPPPIYYPYYYTp5La4Z5",
"5V+5Z+5YPPLLPPPYYYYYYPLPYYYYPPIYYPPPIYYYPPYYPPPYYPPPLPPYT5+V5+Z6",
"6PNNHNSYYIPPLHHHHHLPIILHLPYYIPLLPYIPIPPPPPPLPLHLPPPIIPPLLZVLZNL5",
"#222<<22222222<<<<<<<222<<22222<<<<<<<222<<2<<2222222222<<2222<#"
};
